<?xml version="1.0" encoding="iso-8859-1"?>
<!-- Generator: Adobe Illustrator 19.0.0, SVG Export Plug-In . SVG Version: 6.00 Build 0)  -->
<svg version="1.1" fill="#ffffff" id="Capa_1" xmlns="http://www.w3.org/2000/svg" xmlns:xlink="http://www.w3.org/1999/xlink" x="0px" y="0px"
	 viewBox="0 0 479.991 479.991" style="enable-background:new 0 0 479.991 479.991;" xml:space="preserve">
<g>
	<g>
		<g>
			<path d="M391.987,391.991v-240c0.008-2.968-0.072-5.84-0.248-8.704h0c-0.647-11.342-2.568-22.576-5.728-33.488
				c-4.429-15.556-11.386-30.278-20.592-43.576c-15.221-22.348-36.156-40.205-60.624-51.712c-11.452-5.424-23.55-9.363-36-11.72
				C209.37-8.759,148.771,16.153,114.652,66.159v0.048c-9.223,13.286-16.201,27.996-20.656,43.544
				c-3.167,10.922-5.094,22.166-5.744,33.52c-0.176,2.88-0.256,5.752-0.256,8.72v240h16V219.575
				c0.512,1.024,0.928,2.144,1.464,3.152c7.463,14.194,17.13,27.114,28.64,38.28c5.574,5.385,11.557,10.331,17.896,14.792v76.192h16
				v-66.248c9.204,4.979,18.895,9,28.92,12c5.048,1.448,9.752,2.568,14.312,3.432c6.866,1.301,13.818,2.103,20.8,2.4v128.416h16
				V303.607c6.945-0.303,13.858-1.105,20.688-2.4c4.64-0.88,9.344-2,14.472-3.472c9.987-3,19.638-7.021,28.8-12v66.256h16v-76.192
				c19.496-13.72,35.439-31.892,46.504-53.008c0.552-1.032,0.968-2.168,1.496-3.2v172.4H391.987z M334.747,54.479
				c2.848,2.76,5.496,5.688,8.064,8.664v0.048l-24.368,0.672l-5.6-26.528C320.718,42.277,328.058,48.023,334.747,54.479z
				 M315.379,79.903l39.08-1.072c7.118,10.932,12.57,22.863,16.176,35.4c2.413,8.513,3.984,17.243,4.688,26.064l-33.656,27.28
				l-47.408-6.784l-13.28-46.488L315.379,79.903z M185.595,27.447c9.227-4.078,18.889-7.087,28.8-8.968
				c16.958-3.328,34.402-3.328,51.36,0c9.855,1.895,19.464,4.904,28.64,8.968l8.888,41.96l-34.6,34.584h-57.376l-34.584-34.584
				L185.595,27.447z M278.868,165.175l-38.872,32.416l-38.872-32.4l12.904-45.2h51.936L278.868,165.175z M145.316,54.431
				c3.016-2.984,6.264-5.776,9.6-8.456c1.032-0.8,2.104-1.6,3.2-2.4c2.4-1.808,4.8-3.552,7.328-5.192
				c0.584-0.384,1.176-0.744,1.768-1.112l-5.6,26.528l-24.376-0.672C139.803,60.159,142.451,57.231,145.316,54.431z
				 M109.371,114.167c3.602-12.513,9.043-24.422,16.144-35.336l39.08,1.072l34.4,34.4l-13.264,46.488l-47.408,6.768l-33.648-27.28
				C105.376,131.441,106.949,122.695,109.371,114.167z M109.355,189.767c-2.74-9.513-4.436-19.296-5.056-29.176l21.488,17.416
				l-12.552,23.04C111.819,197.367,110.475,193.631,109.355,189.767z M197.404,281.087c-32.121-10.511-59.128-32.693-75.68-62.16h0
				l19.384-35.584l48.496-6.928l42.392,35.32v40.512L197.404,281.087z M216.675,285.831l23.32-19.44l23.32,19.44
				C247.889,288.559,232.102,288.559,216.675,285.831z M334.739,249.535L334.739,249.535c-14.79,14.306-32.616,25.091-52.152,31.552
				l-34.592-28.84v-40.512l42.4-35.32l48.496,6.928l19.392,35.592C351.927,230.201,344,240.504,334.739,249.535z M370.628,189.775
				c-1.112,3.856-2.456,7.592-3.872,11.272l-12.552-23.04l21.488-17.416C375.072,170.474,373.374,180.261,370.628,189.775z"/>
			<rect x="231.995" y="447.991" width="16" height="32"/>
			<rect x="375.996" y="407.991" width="16" height="32"/>
			<rect x="87.995" y="407.991" width="16" height="32"/>
			<rect x="311.996" y="367.991" width="16" height="16"/>
			<rect x="311.996" y="399.991" width="16" height="32"/>
			<rect x="151.995" y="367.991" width="16" height="16"/>
			<rect x="151.995" y="399.991" width="16" height="32"/>
			<rect x="375.996" y="455.991" width="16" height="16"/>
			<rect x="87.995" y="455.991" width="16" height="16"/>
		</g>
	</g>
</g>
<g>
</g>
<g>
</g>
<g>
</g>
<g>
</g>
<g>
</g>
<g>
</g>
<g>
</g>
<g>
</g>
<g>
</g>
<g>
</g>
<g>
</g>
<g>
</g>
<g>
</g>
<g>
</g>
<g>
</g>
</svg>
