<?xml version="1.0" encoding="iso-8859-1"?>
<!-- Generator: Adobe Illustrator 19.0.0, SVG Export Plug-In . SVG Version: 6.00 Build 0)  -->
<svg version="1.1" fill="#ffffff" id="Capa_1" xmlns="http://www.w3.org/2000/svg" xmlns:xlink="http://www.w3.org/1999/xlink" x="0px" y="0px"
	 viewBox="0 0 480 480" style="enable-background:new 0 0 480 480;" xml:space="preserve">
<g>
	<g>
		<g>
			<path d="M464,256h-24V104c0-13.255-10.745-24-24-24s-24,10.745-24,24v152H88V104c0-13.255-10.745-24-24-24s-24,10.745-24,24v152
				H16c-8.837,0-16,7.163-16,16v80c0,8.837,7.163,16,16,16v24c0,4.418,3.582,8,8,8h48c4.418,0,8-3.582,8-8v-24h320v24
				c0,4.418,3.582,8,8,8h48c4.418,0,8-3.582,8-8v-24c8.837,0,16-7.163,16-16v-80C480,263.163,472.837,256,464,256z M408,104
				c0-4.418,3.582-8,8-8s8,3.582,8,8v152h-16V104z M56,104c0-4.418,3.582-8,8-8s8,3.582,8,8v152H56V104z M64,384H32v-16h32V384z
				 M448,384h-32v-16h32V384z M464,352H16v-80h448V352z"/>
			<path d="M166.536,174.488l0.008,0.032c40.392-40.569,106.023-40.712,146.591-0.321c0.107,0.107,0.214,0.214,0.321,0.321
				c3.126,3.133,8.199,3.138,11.332,0.012s3.138-8.199,0.012-11.332c-46.617-46.834-122.374-47.01-169.207-0.393
				c-0.131,0.131-0.262,0.261-0.393,0.393c-3.063,3.184-2.965,8.249,0.219,11.312C158.526,177.5,163.442,177.49,166.536,174.488z"/>
			<path d="M296.56,199.44c4.418-0.001,7.999-3.583,7.998-8.002c0-2.121-0.843-4.154-2.342-5.654
				c-34.334-34.361-90.022-34.383-124.383-0.049c-0.016,0.016-0.033,0.033-0.049,0.049c-3.069,3.178-2.981,8.243,0.197,11.312
				c3.1,2.994,8.015,2.994,11.115,0c28.116-28.108,73.692-28.108,101.808,0C292.4,198.602,294.437,199.446,296.56,199.44z"/>
			<path d="M200.537,208.319c-0.043,0.043-0.086,0.086-0.129,0.129h-0.016c-3.11,3.139-3.087,8.206,0.052,11.316
				c3.139,3.11,8.206,3.087,11.316-0.052c15.57-15.596,40.836-15.618,56.433-0.047c0.016,0.016,0.031,0.031,0.047,0.047
				c3.11,3.139,8.177,3.162,11.316,0.052c3.139-3.11,3.162-8.177,0.052-11.316C257.809,186.578,222.407,186.52,200.537,208.319z"/>
			<rect x="32" y="288" width="32" height="16"/>
			<rect x="80" y="288" width="32" height="16"/>
			<rect x="128" y="288" width="32" height="16"/>
			<rect x="176" y="288" width="32" height="16"/>
			<rect x="224" y="288" width="32" height="16"/>
			<rect x="272" y="288" width="32" height="16"/>
			<rect x="320" y="288" width="32" height="16"/>
			<rect x="368" y="288" width="32" height="16"/>
			<rect x="416" y="288" width="32" height="16"/>
		</g>
	</g>
</g>
<g>
</g>
<g>
</g>
<g>
</g>
<g>
</g>
<g>
</g>
<g>
</g>
<g>
</g>
<g>
</g>
<g>
</g>
<g>
</g>
<g>
</g>
<g>
</g>
<g>
</g>
<g>
</g>
<g>
</g>
</svg>
