<?xml version="1.0" encoding="iso-8859-1"?>
<!-- Generator: Adobe Illustrator 19.0.0, SVG Export Plug-In . SVG Version: 6.00 Build 0)  -->
<svg version="1.1" fill="#ffffff" id="Capa_1" xmlns="http://www.w3.org/2000/svg" xmlns:xlink="http://www.w3.org/1999/xlink" x="0px" y="0px"
	 viewBox="0 0 480 480" style="enable-background:new 0 0 480 480;" xml:space="preserve">
<g>
	<g>
		<g>
			<path d="M120,80h208V64H120V40c0-13.255,10.745-24,24-24h192c13.255,0,24,10.745,24,24v96h16V40c-0.026-22.08-17.92-39.974-40-40
				H144c-22.08,0.026-39.974,17.92-40,40v96h16V80z"/>
			<path d="M360,384H152v16h208v40c0,13.255-10.745,24-24,24H144c-13.255,0-24-10.745-24-24v-80h-16v80
				c0.026,22.08,17.92,39.974,40,40h192c22.08-0.026,39.974-17.92,40-40v-80h-16V384z"/>
			<rect x="232" y="424" width="16" height="16"/>
			<rect x="176" y="32" width="16" height="16"/>
			<rect x="208" y="32" width="16" height="16"/>
			<path d="M136,104v32h16v-24h24V96h-32C139.582,96,136,99.582,136,104z"/>
			<path d="M400,152H80c-13.255,0-24,10.745-24,24v144c0,13.255,10.745,24,24,24h320c13.255,0,24-10.745,24-24V176
				C424,162.745,413.255,152,400,152z M408,320c0,4.418-3.582,8-8,8H80c-4.418,0-8-3.582-8-8V176c0-4.418,3.582-8,8-8h320
				c4.418,0,8,3.582,8,8V320z"/>
			<path d="M387,211.888c-14.033-5.721-25.167-16.855-30.888-30.888c-1.222-3.022-4.156-5-7.416-5H304v16h39.528
				c7.025,14.053,18.419,25.447,32.472,32.472v47.056c-14.053,7.025-25.447,18.419-32.472,32.472H320v16h28.696
				c3.26,0,6.194-1.978,7.416-5c5.721-14.033,16.855-25.167,30.888-30.888c3.022-1.222,5-4.156,5-7.416v-57.392
				C392,216.044,390.022,213.11,387,211.888z"/>
			<path d="M104,271.528v-47.056c14.053-7.025,25.447-18.419,32.472-32.472H176v-16h-44.696c-3.26,0-6.194,1.978-7.416,5
				c-5.721,14.033-16.855,25.167-30.888,30.888c-3.022,1.222-5,4.156-5,7.416v57.392c0,3.26,1.978,6.194,5,7.416
				c14.033,5.721,25.167,16.855,30.888,30.888c1.222,3.022,4.156,5,7.416,5H160v-16h-23.528
				C129.447,289.947,118.053,278.553,104,271.528z"/>
			<rect x="328" y="240" width="16" height="16"/>
			<rect x="136" y="240" width="16" height="16"/>
			<path d="M240,176c-39.764,0-72,32.235-72,72c0,39.764,32.236,72,72,72c39.765,0,72-32.236,72-72
				C311.956,208.254,279.746,176.044,240,176z M240,304c-30.928,0-56-25.072-56-56c0-30.928,25.072-56,56-56
				c30.928,0,56,25.072,56,56C295.965,278.913,270.913,303.965,240,304z"/>
			<path d="M240,224c4.418,0,8,3.582,8,8h16c-0.042-10.134-6.445-19.15-16-22.528V200h-16v9.472
				c-12.473,4.393-19.023,18.066-14.629,30.539c3.38,9.596,12.455,16.009,22.629,15.989c4.418,0,8,3.582,8,8s-3.582,8-8,8
				s-8-3.582-8-8h-16c0.042,10.134,6.445,19.15,16,22.528V296h16v-9.472c12.473-4.393,19.023-18.066,14.63-30.539
				c-3.38-9.596-12.455-16.009-22.63-15.989c-4.418,0-8-3.582-8-8S235.582,224,240,224z"/>
		</g>
	</g>
</g>
<g>
</g>
<g>
</g>
<g>
</g>
<g>
</g>
<g>
</g>
<g>
</g>
<g>
</g>
<g>
</g>
<g>
</g>
<g>
</g>
<g>
</g>
<g>
</g>
<g>
</g>
<g>
</g>
<g>
</g>
</svg>
