<?xml version="1.0" encoding="iso-8859-1"?>
<!-- Generator: Adobe Illustrator 19.0.0, SVG Export Plug-In . SVG Version: 6.00 Build 0)  -->
<svg version="1.1" fill="#ffffff" id="Capa_1" xmlns="http://www.w3.org/2000/svg" xmlns:xlink="http://www.w3.org/1999/xlink" x="0px" y="0px"
	 viewBox="0 0 480 480" style="enable-background:new 0 0 480 480;" xml:space="preserve">
<g>
	<g>
		<g>
			<path d="M121.077,80h208V64h-208V40c0-13.255,10.745-24,24-24h192c13.255,0,24,10.745,24,24v72h16V40
				c-0.026-22.08-17.92-39.974-40-40h-192c-22.08,0.026-39.974,17.92-40,40v104h16V80z"/>
			<path d="M361.077,384h-208v16h208v40c0,13.255-10.745,24-24,24h-192c-13.255,0-24-10.745-24-24v-56h-16v56
				c0.026,22.08,17.92,39.974,40,40h192c22.08-0.026,39.974-17.92,40-40v-88h-16V384z"/>
			<rect x="233.077" y="424" width="16" height="16"/>
			<rect x="177.077" y="32" width="16" height="16"/>
			<rect x="209.077" y="32" width="16" height="16"/>
			<path d="M137.077,104v32h16v-24h24V96h-32C140.659,96,137.077,99.582,137.077,104z"/>
			<path d="M396.581,220.504L396.581,220.504c-15.639-15.607-40.961-15.607-56.6,0l-42.24,42.24
				c-4.499-4.279-10.455-6.69-16.664-6.744h-43.344c-6.343-14.591-20.746-24.021-36.656-24h-32c-8.655,0-17.076,2.807-24,8v-8
				c0-4.418-3.582-8-8-8h-48c-4.418,0-8,3.582-8,8v128c0,4.418,3.582,8,8,8h48c4.418,0,8-3.582,8-8v-8h128
				c2.122,0,4.156-0.844,5.656-2.344l117.848-117.84C399.704,228.692,399.704,223.628,396.581,220.504z M129.077,352h-32V240h32V352
				z M269.765,336H145.077v-64c-0.018-1.936,0.227-3.866,0.728-5.736c0-0.096,0-0.192,0.064-0.288
				c2.712-10.596,12.271-17.999,23.208-17.976h32c10.935-0.02,20.488,7.383,23.2,17.976c0.904,3.547,4.1,6.028,7.76,6.024h49.04
				c1.789,0.022,3.52,0.632,4.928,1.736c1.295,0.994,2.232,2.38,2.672,3.952c0,0.096,0.088,0.168,0.112,0.256
				c0.206,0.665,0.304,1.36,0.288,2.056c0.003,2.155-0.882,4.215-2.448,5.696c-1.459,1.493-3.465,2.325-5.552,2.304h-88v16h88
				c13.224-0.074,23.926-10.776,24-24c0-0.616-0.096-1.216-0.144-1.824l46.4-46.36c7.279-7.046,18.134-8.906,27.344-4.688
				L269.765,336z"/>
			<rect x="105.077" y="256" width="16" height="16"/>
			<path d="M249.077,120v9.472c-12.473,4.393-19.023,18.066-14.629,30.539c3.38,9.596,12.455,16.009,22.629,15.989
				c4.418,0,8,3.582,8,8s-3.582,8-8,8c-4.418,0-8-3.582-8-8h-16c0.042,10.134,6.445,19.15,16,22.528V216h16v-9.472
				c12.473-4.393,19.023-18.066,14.629-30.539c-3.38-9.596-12.455-16.009-22.629-15.989c-4.418,0-8-3.582-8-8s3.582-8,8-8
				c4.418,0,8,3.582,8,8h16c-0.042-10.134-6.445-19.15-16-22.528V120H249.077z"/>
			<path d="M185.077,168c0,39.764,32.236,72,72,72c39.765,0,72-32.236,72-72c0-39.765-32.235-72-72-72
				C217.331,96.044,185.121,128.254,185.077,168z M313.077,168c0,30.928-25.072,56-56,56c-30.928,0-56-25.072-56-56
				c0-30.928,25.072-56,56-56C287.99,112.035,313.042,137.087,313.077,168z"/>
		</g>
	</g>
</g>
<g>
</g>
<g>
</g>
<g>
</g>
<g>
</g>
<g>
</g>
<g>
</g>
<g>
</g>
<g>
</g>
<g>
</g>
<g>
</g>
<g>
</g>
<g>
</g>
<g>
</g>
<g>
</g>
<g>
</g>
</svg>
