<?xml version="1.0"?>
<svg xmlns="http://www.w3.org/2000/svg" viewBox="0 0 64 64" width="512" height="512" fill="#ffffff"><g id="Television"><path d="M57,18H34.92a6.973,6.973,0,0,0-1.775-3.73L43.707,3.707,42.293,2.293,31.586,13A6.937,6.937,0,0,0,28,12H26a6.937,6.937,0,0,0-3.586,1L11.707,2.293,10.293,3.707,20.855,14.27A6.973,6.973,0,0,0,19.08,18H7a5.006,5.006,0,0,0-5,5V57a5.006,5.006,0,0,0,5,5H57a5.006,5.006,0,0,0,5-5V23A5.006,5.006,0,0,0,57,18ZM26,14h2a5.009,5.009,0,0,1,4.9,4H21.1A5.009,5.009,0,0,1,26,14ZM60,57a3,3,0,0,1-3,3H7a3,3,0,0,1-3-3V23a3,3,0,0,1,3-3H57a3,3,0,0,1,3,3Z"/><path d="M45,22H9a3,3,0,0,0-3,3V55a3,3,0,0,0,3,3H45a3,3,0,0,0,3-3V25A3,3,0,0,0,45,22Zm1,33a1,1,0,0,1-1,1H9a1,1,0,0,1-1-1V25a1,1,0,0,1,1-1H45a1,1,0,0,1,1,1Z"/><path d="M55,25.142V24H53v1.142a3.981,3.981,0,0,0,0,7.716V34h2V32.858a3.981,3.981,0,0,0,0-7.716ZM52,29a1.993,1.993,0,0,1,1-1.722v3.444A1.993,1.993,0,0,1,52,29Zm3,1.722V27.278a1.983,1.983,0,0,1,0,3.444Z"/><path d="M57,39a3,3,0,1,0-3,3A3,3,0,0,0,57,39Zm-4,0a1,1,0,1,1,1,1A1,1,0,0,1,53,39Z"/><rect x="50" y="46" width="8" height="2"/><rect x="50" y="50" width="8" height="2"/><rect x="50" y="54" width="8" height="2"/><rect x="26" y="39" width="2" height="2"/><rect x="30" y="39" width="2" height="2"/><rect x="22" y="39" width="2" height="2"/></g></svg>
