<?xml version="1.0" encoding="iso-8859-1"?>
<!-- Generator: Adobe Illustrator 19.0.0, SVG Export Plug-In . SVG Version: 6.00 Build 0)  -->
<svg version="1.1" id="Capa_1" xmlns="http://www.w3.org/2000/svg" xmlns:xlink="http://www.w3.org/1999/xlink" x="0px" y="0px"
	 viewBox="0 0 512 512" style="enable-background:new 0 0 512 512;" xml:space="preserve">
<path style="fill:#F0E4D6;" d="M452.521,216.949c-5.016-28.663-16.271-55.869-32.976-79.698l38.999-38.999l-49.135-49.091
	L370.41,88.159c-23.821-16.722-51.035-27.995-79.698-33.02V0h-69.424v55.14c-28.663,5.033-55.877,16.306-79.698,33.02
	l-38.999-38.999L53.5,98.252l38.999,38.999c-16.722,23.821-27.995,51.035-33.02,79.698H4.339v69.424h503.322v-69.424H452.521z"/>
<path style="fill:#EBDCCA;" d="M452.521,216.949c-5.016-28.663-16.271-55.869-32.976-79.698l38.999-38.999l-49.135-49.091
	L370.41,88.159c-8.522-5.97-17.503-11.264-26.858-15.82L168.431,286.373h339.23v-69.424H452.521z"/>
<g>
	<path style="fill:#3685BA;" d="M455.593,381.831h-86.78c-28.759,0-52.068,23.309-52.068,52.068V512h190.915v-78.102
		C507.661,405.14,484.352,381.831,455.593,381.831z"/>
	<path style="fill:#3685BA;" d="M143.186,381.831h-86.78c-28.759,0-52.068,23.309-52.068,52.068V512h190.915v-78.102
		C195.254,405.14,171.945,381.831,143.186,381.831z"/>
</g>
<path style="fill:#4398D1;" d="M351.458,512v-95.458c0-28.759-23.309-52.068-52.068-52.068h-86.78
	c-28.759,0-52.068,23.309-52.068,52.068V512"/>
<rect x="247.322" y="364.475" style="fill:#266599;" width="17.356" height="130.169"/>
<path style="fill:#FEC9A3;" d="M256,242.983L256,242.983c19.17,0,34.712,15.542,34.712,34.712v17.356
	c0,19.17-15.542,34.712-34.712,34.712l0,0c-19.17,0-34.712-15.542-34.712-34.712v-17.356
	C221.288,258.525,236.83,242.983,256,242.983z"/>
<rect x="91.119" y="381.831" style="fill:#266599;" width="17.356" height="112.814"/>
<path style="fill:#FEC9A3;" d="M99.797,260.339L99.797,260.339c19.17,0,34.712,15.542,34.712,34.712v17.356
	c0,19.17-15.542,34.712-34.712,34.712l0,0c-19.17,0-34.712-15.542-34.712-34.712v-17.356
	C65.085,275.881,80.627,260.339,99.797,260.339z"/>
<rect x="403.525" y="381.831" style="fill:#266599;" width="17.356" height="112.814"/>
<path style="fill:#FEC9A3;" d="M412.203,347.119L412.203,347.119c-19.17,0-34.712-15.542-34.712-34.712v-17.356
	c0-19.17,15.542-34.712,34.712-34.712l0,0c19.17,0,34.712,15.542,34.712,34.712v17.356
	C446.915,331.576,431.373,347.119,412.203,347.119z"/>
<g>
	<rect x="299.39" y="425.22" style="fill:#3685BA;" width="17.356" height="86.78"/>
	<rect x="195.254" y="425.22" style="fill:#3685BA;" width="17.356" height="86.78"/>
</g>
<g>
	<rect x="39.051" y="442.576" style="fill:#3077A6;" width="17.356" height="69.424"/>
	<rect x="455.593" y="442.576" style="fill:#3077A6;" width="17.356" height="69.424"/>
</g>
<g>
	<path style="fill:#E0D2C1;" d="M367.668,235.537c-8.86-61.674-66.031-104.491-127.705-95.631
		c-49.569,7.116-88.515,46.063-95.631,95.631l-17.191-2.465c10.145-71.168,76.062-120.65,147.23-110.505
		c57.309,8.166,102.339,53.196,110.505,110.505L367.668,235.537z"/>
	<path style="fill:#E0D2C1;" d="M308.155,235.537c-4.139-28.629-30.703-48.492-59.331-44.353
		c-22.979,3.324-41.038,21.374-44.353,44.353l-17.191-2.465c5.502-38.122,40.873-64.564,78.996-59.062
		c30.599,4.417,54.645,28.455,59.062,59.062L308.155,235.537z"/>
</g>
<g>
</g>
<g>
</g>
<g>
</g>
<g>
</g>
<g>
</g>
<g>
</g>
<g>
</g>
<g>
</g>
<g>
</g>
<g>
</g>
<g>
</g>
<g>
</g>
<g>
</g>
<g>
</g>
<g>
</g>
</svg>
