<?xml version="1.0" encoding="iso-8859-1"?>
<!-- Generator: Adobe Illustrator 19.0.0, SVG Export Plug-In . SVG Version: 6.00 Build 0)  -->
<svg version="1.1" id="Capa_1" xmlns="http://www.w3.org/2000/svg" xmlns:xlink="http://www.w3.org/1999/xlink" x="0px" y="0px"
	 viewBox="0 0 512 512" style="enable-background:new 0 0 512 512;" xml:space="preserve">
<path style="fill:#E0D2C1;" d="M151.864,138.847h-86.78c-28.759,0-52.068,23.309-52.068,52.068v104.136h190.915V190.915
	C203.932,162.156,180.623,138.847,151.864,138.847z"/>
<path style="fill:#EBDCCA;" d="M151.864,138.847h-86.78c-28.759,0-52.068,23.309-52.068,52.068v104.136h190.915V190.915
	C203.932,162.156,180.623,138.847,151.864,138.847z"/>
<path style="fill:#E0D2C1;" d="M203.932,190.915c-0.017-26.98-20.636-49.473-47.512-51.833
	c-16.245,60.807-50.645,115.217-98.608,155.969h146.12V190.915z"/>
<path style="fill:#F2A846;" d="M455.593,26.034h-34.712v26.034h34.712v26.034c0,23.96,19.43,43.39,43.39,43.39V69.424
	C498.983,45.464,479.553,26.034,455.593,26.034z"/>
<g>
	<path style="fill:#F7C097;" d="M377.492,138.847L377.492,138.847c-19.17,0-34.712,15.542-34.712,34.712v156.203h34.712V138.847z"/>
	<path style="fill:#F7C097;" d="M464.271,138.847v190.915h34.712V173.559C498.983,154.39,483.441,138.847,464.271,138.847z"/>
</g>
<polygon style="fill:#4398D1;" points="464.271,216.949 464.271,138.847 377.492,138.847 377.492,216.949 360.136,329.763 
	377.492,329.763 464.271,329.763 481.627,329.763 "/>
<rect x="420.881" y="329.763" style="fill:#FEC9A3;" width="43.39" height="138.847"/>
<path style="fill:#4398D1;" d="M420.881,468.61L455.593,512h25.331c4.79,0,8.678-3.879,8.678-8.678c0-1.97-0.668-3.888-1.901-5.424
	l-23.43-29.288H420.881z"/>
<rect id="SVGCleanerId_0" x="412.203" y="468.61" style="fill:#4398D1;" width="17.356" height="43.39"/>
<path style="fill:#FEC9A3;" d="M420.881,17.356L420.881,17.356c19.17,0,34.712,15.542,34.712,34.712v17.356
	c0,19.17-15.542,34.712-34.712,34.712l0,0c-19.17,0-34.712-15.542-34.712-34.712V52.068
	C386.169,32.898,401.712,17.356,420.881,17.356z"/>
<path style="fill:#F9B44D;" d="M450.942,35.007c-9.372-16.662-30.468-22.571-47.13-13.199c-10.926,6.144-17.677,17.72-17.642,30.26
	v14.431C404.732,62.481,433.777,53.56,450.942,35.007z"/>
<rect x="377.492" y="329.763" style="fill:#FEC9A3;" width="43.39" height="138.847"/>
<path style="fill:#4398D1;" d="M420.881,468.61L386.169,512h-25.331c-4.79,0-8.678-3.879-8.678-8.678c0-1.97,0.668-3.888,1.9-5.424
	l23.43-29.288H420.881z"/>
<g>
	<rect id="SVGCleanerId_0_1_" x="412.203" y="468.61" style="fill:#4398D1;" width="17.356" height="43.39"/>
</g>
<rect x="412.203" y="329.763" style="fill:#F5B789;" width="17.356" height="138.847"/>
<path style="fill:#3F8FC4;" d="M464.271,216.949v-78.102h-11.212c-10.414,104.778-50.801,164.204-74.769,190.915h103.337
	L464.271,216.949z"/>
<polygon style="fill:#266599;" points="160.542,477.288 160.542,295.051 108.475,295.051 56.407,295.051 56.407,477.288 
	39.051,503.322 108.475,503.322 177.898,503.322 "/>
<g>
	<rect x="13.017" y="295.051" style="fill:#F7C097;" width="43.39" height="34.712"/>
	<rect x="160.542" y="295.051" style="fill:#F7C097;" width="43.39" height="34.712"/>
</g>
<rect x="99.797" y="321.085" style="fill:#18588C;" width="17.356" height="182.237"/>
<path style="fill:#FEC9A3;" d="M108.475,17.356L108.475,17.356c19.17,0,34.712,15.542,34.712,34.712v17.356
	c0,19.17-15.542,34.712-34.712,34.712l0,0c-19.17,0-34.712-15.542-34.712-34.712V52.068C73.763,32.898,89.305,17.356,108.475,17.356
	z"/>
<g>
	<rect x="47.729" y="190.915" style="fill:#CCBFB0;" width="17.356" height="104.136"/>
	<rect x="151.864" y="190.915" style="fill:#CCBFB0;" width="17.356" height="104.136"/>
</g>
<g>
	<rect x="99.797" y="138.847" style="fill:#266599;" width="17.356" height="130.169"/>
	<polygon style="fill:#266599;" points="316.746,477.288 316.746,295.051 264.678,295.051 212.61,295.051 212.61,477.288 
		195.254,503.322 264.678,503.322 334.102,503.322 	"/>
</g>
<path style="fill:#F0E4D6;" d="M308.068,121.492h-86.78c-28.759,0-52.068,23.309-52.068,52.068v121.492h190.915V173.559
	C360.136,144.801,336.827,121.492,308.068,121.492z"/>
<g>
	<rect x="169.22" y="295.051" style="fill:#FEC9A3;" width="43.39" height="34.712"/>
	<rect x="316.746" y="295.051" style="fill:#FEC9A3;" width="43.39" height="34.712"/>
</g>
<rect x="256" y="321.085" style="fill:#18588C;" width="17.356" height="182.237"/>
<path style="fill:#FEC9A3;" d="M264.678,0L264.678,0c19.17,0,34.712,15.542,34.712,34.712v17.356
	c0,19.17-15.542,34.712-34.712,34.712l0,0c-19.17,0-34.712-15.542-34.712-34.712V34.712C229.966,15.542,245.508,0,264.678,0z"/>
<path style="fill:#EBDCCA;" d="M360.136,173.559c-0.017-24.307-16.844-45.368-40.552-50.749
	c-13.225,65.736-46.262,125.848-94.668,172.24h135.22V173.559z"/>
<g>
	<rect x="203.932" y="190.915" style="fill:#E0D2C1;" width="17.356" height="104.136"/>
	<rect x="308.068" y="190.915" style="fill:#E0D2C1;" width="17.356" height="104.136"/>
</g>
<rect x="256" y="121.492" style="fill:#266599;" width="17.356" height="147.525"/>
<g>
</g>
<g>
</g>
<g>
</g>
<g>
</g>
<g>
</g>
<g>
</g>
<g>
</g>
<g>
</g>
<g>
</g>
<g>
</g>
<g>
</g>
<g>
</g>
<g>
</g>
<g>
</g>
<g>
</g>
</svg>
