<?xml version="1.0" encoding="utf-8"?>
<!-- Generator: Adobe Illustrator 19.0.0, SVG Export Plug-In . SVG Version: 6.00 Build 0)  -->
<svg version="1.1" id="Layer_1" xmlns="http://www.w3.org/2000/svg" xmlns:xlink="http://www.w3.org/1999/xlink" x="0px" y="0px"
	 viewBox="493 231 1598.8 331" style="enable-background:new 493 231 1598.8 331;" xml:space="preserve">
<style type="text/css">
	.st0{fill:#E73748;}
</style>
<path class="st0" d="M617.4,459c46.5-22.2,95.4-37.1,145.8-46.9c37.3-7.2,75-13.2,112.7-17.8c32-4,64.3-6.1,96.5-7.4
	c43.1-1.7,86.3-2.7,129.4-2.5c37.1,0.2,74.2,1.7,111.3,3.8c39.1,2.2,78.1,5.4,117,8.9c24.5,2.1,48.9,5.8,73.4,8.2
	c17.5,1.7,35.2,2.9,52.8,3.3c41.3,1,82.6,2.6,123.9,1.8c40.4-0.8,80.9-3.1,121.1-6.9c74.6-7.1,148-21.2,218.5-47.7
	c43.9-16.5,85.3-37.5,121.9-67.2c17.4-14.2,33.2-29.9,45.5-48.8c1.8-2.8,3.1-5.9,4.6-8.8c-532.9,0-1065.9,0-1598.8,0
	c0,110.4,0,220.7,0,331C523.4,514.2,567.5,482.9,617.4,459z"/>
</svg>
