<?xml version="1.0" encoding="utf-8"?>
<!-- Generator: Adobe Illustrator 17.0.0, SVG Export Plug-In . SVG Version: 6.00 Build 0)  -->
<!DOCTYPE svg PUBLIC "-//W3C//DTD SVG 1.1//EN" "http://www.w3.org/Graphics/SVG/1.1/DTD/svg11.dtd">
<svg version="1.1" id="Capa_1" xmlns="http://www.w3.org/2000/svg" xmlns:xlink="http://www.w3.org/1999/xlink" x="0px" y="0px"
	 width="200px" height="200px" viewBox="0 0 200 200" enable-background="new 0 0 200 200" xml:space="preserve">
<circle fill="#FFFFFF" stroke="#18364C" stroke-width="2.8818" stroke-miterlimit="10" cx="100.338" cy="99.798" r="97.521"/>
<path fill="#FC9D9D" stroke="#E03834" stroke-width="3" stroke-linecap="round" stroke-linejoin="round" stroke-miterlimit="10" d="
	M148.555,158.592l-74.946-21.264c-2.762-0.783-4.365-3.658-3.582-6.42l21.264-74.946c0.783-2.762,3.658-4.365,6.42-3.582
	l74.947,21.264c2.762,0.783,4.365,3.658,3.582,6.42l-21.264,74.947C154.191,157.772,151.317,159.375,148.555,158.592z"/>
<path fill="#FCF0F0" stroke="#E03834" stroke-width="3" stroke-linecap="round" stroke-linejoin="round" stroke-miterlimit="10" d="
	M51.445,158.592l74.946-21.264c2.762-0.783,4.365-3.658,3.582-6.42l-21.265-74.947c-0.783-2.762-3.658-4.365-6.42-3.582
	L27.343,73.644c-2.762,0.783-4.365,3.658-3.582,6.42l21.264,74.947C45.809,157.772,48.683,159.375,51.445,158.592z"/>
<path fill="#FFD7D7" stroke="#E03834" stroke-width="3" stroke-linecap="round" stroke-linejoin="round" stroke-miterlimit="10" d="
	M138.952,147.308H61.047c-2.871,0-5.198-2.327-5.198-5.198V46.408c0-2.871,2.327-5.198,5.198-5.198h77.905
	c2.871,0,5.198,2.327,5.198,5.198v95.703C144.15,144.981,141.823,147.308,138.952,147.308z"/>
<circle fill="#FCF0F0" stroke="#E03834" stroke-width="3" stroke-linecap="round" stroke-linejoin="round" stroke-miterlimit="10" cx="125.42" cy="75.308" r="22.934"/>
<line fill="none" stroke="#18364C" stroke-width="3" stroke-miterlimit="10" x1="140.857" y1="92.323" x2="150.999" y2="102.465"/>
<path fill="#FFFFFF" stroke="#18364C" stroke-width="3" stroke-miterlimit="10" d="M160.126,104.831
	c1.867,1.867,1.867,4.894,0,6.761l0,0c-1.867,1.867-4.894,1.867-6.761,0l-6.761-6.761c-1.867-1.867-1.867-4.894,0-6.761l0,0
	c1.867-1.867,4.894-1.867,6.761,0L160.126,104.831z"/>
<line fill="none" stroke="#E03834" stroke-width="3" stroke-linecap="round" stroke-linejoin="round" stroke-miterlimit="10" x1="69" y1="68.5" x2="124" y2="68.5"/>
<line fill="none" stroke="#E03834" stroke-width="3" stroke-linecap="round" stroke-linejoin="round" stroke-miterlimit="10" x1="74" y1="76.5" x2="122" y2="76.5"/>
<line fill="none" stroke="#E03834" stroke-width="3" stroke-linecap="round" stroke-linejoin="round" stroke-miterlimit="10" x1="69" y1="86.5" x2="100" y2="86.5"/>
<line fill="none" stroke="#E03834" stroke-width="3" stroke-linecap="round" stroke-linejoin="round" stroke-miterlimit="10" x1="74" y1="110.5" x2="92" y2="110.5"/>
<line fill="none" stroke="#E03834" stroke-width="5" stroke-linecap="round" stroke-linejoin="round" stroke-miterlimit="10" x1="106" y1="68.5" x2="129" y2="68.5"/>
<line fill="none" stroke="#E03834" stroke-width="5" stroke-linecap="round" stroke-linejoin="round" stroke-miterlimit="10" x1="104" y1="76.5" x2="132" y2="76.5"/>
<circle fill="none" stroke="#18364C" stroke-width="3" stroke-linecap="round" stroke-linejoin="round" stroke-miterlimit="10" cx="125.42" cy="75.308" r="22.934"/>
</svg>
