<?xml version="1.0" encoding="utf-8"?>
<!-- Generator: Adobe Illustrator 17.0.0, SVG Export Plug-In . SVG Version: 6.00 Build 0)  -->
<!DOCTYPE svg PUBLIC "-//W3C//DTD SVG 1.1//EN" "http://www.w3.org/Graphics/SVG/1.1/DTD/svg11.dtd">
<svg version="1.1" id="Capa_1" xmlns="http://www.w3.org/2000/svg" xmlns:xlink="http://www.w3.org/1999/xlink" x="0px" y="0px"
	 width="200px" height="200px" viewBox="0 0 200 200" enable-background="new 0 0 200 200" xml:space="preserve">
<g>
	<circle fill="#FFFFFF" stroke="#18364C" stroke-width="2.8818" stroke-miterlimit="10" cx="100.005" cy="99.798" r="97.521"/>
	
		<path fill="#FCF0F0" stroke="#E03834" stroke-width="3" stroke-linecap="round" stroke-linejoin="round" stroke-miterlimit="10" d="
		M115.658,91.533c-0.314-0.507-0.842-0.842-1.434-0.911c-0.595-0.068-1.183,0.137-1.605,0.558l-8.955,8.955
		c-0.232,0.232-0.541,0.36-0.87,0.36c-0.329,0-0.637-0.128-0.87-0.36l-0.42-0.42c-0.48-0.48-0.48-1.26,0-1.74l9.035-9.035
		c0.414-0.414,0.62-0.991,0.562-1.573c-0.058-0.582-0.374-1.107-0.861-1.431c-2.995-1.993-6.483-3.046-10.088-3.046
		c-10.054,0-18.233,8.179-18.233,18.233s8.179,18.233,18.233,18.233c10.054,0,18.233-8.179,18.233-18.233
		C118.385,97.729,117.443,94.412,115.658,91.533z"/>
	
		<circle fill="#FC9D9D" stroke="#E03834" stroke-width="3" stroke-linecap="round" stroke-linejoin="round" stroke-miterlimit="10" cx="100.153" cy="101.123" r="65.205"/>
	
		<circle fill="#FCF0F0" stroke="#E03834" stroke-width="3" stroke-linecap="round" stroke-linejoin="round" stroke-miterlimit="10" cx="100.153" cy="101.123" r="49.728"/>
	
		<circle fill="#FC9D9D" stroke="#E03834" stroke-width="3" stroke-linecap="round" stroke-linejoin="round" stroke-miterlimit="10" cx="100.153" cy="101.123" r="34.52"/>
	
		<circle fill="#FCF0F0" stroke="#E03834" stroke-width="3" stroke-linecap="round" stroke-linejoin="round" stroke-miterlimit="10" cx="100.153" cy="101.123" r="18.233"/>
	<g>
		
			<path fill="#FFFFFF" stroke="#18364C" stroke-width="3" stroke-linecap="round" stroke-linejoin="round" stroke-miterlimit="10" d="
			M152.854,47.1l-2.152-9.968c-0.119-0.551-0.53-0.993-1.07-1.152c-0.54-0.159-1.125-0.01-1.524,0.388l-15.572,15.572
			c-0.37,0.37-0.527,0.902-0.416,1.414l2.152,9.968c0.119,0.551,0.53,0.993,1.07,1.152c0.143,0.042,0.29,0.063,0.435,0.063
			c0.403,0,0.796-0.158,1.089-0.451l15.572-15.572C152.808,48.144,152.965,47.612,152.854,47.1z"/>
		
			<path fill="#FFFFFF" stroke="#18364C" stroke-width="3" stroke-linecap="round" stroke-linejoin="round" stroke-miterlimit="10" d="
			M165.42,50.818c-0.159-0.541-0.601-0.951-1.152-1.07l-9.967-2.152c-0.512-0.111-1.044,0.046-1.414,0.416l-15.572,15.572
			c-0.399,0.399-0.547,0.983-0.388,1.524s0.601,0.951,1.152,1.07l9.968,2.152c0.108,0.023,0.217,0.035,0.325,0.035
			c0.404,0,0.797-0.159,1.089-0.451l15.572-15.572C165.43,51.944,165.579,51.359,165.42,50.818z"/>
	</g>
	
		<line fill="#FFFFFF" stroke="#18364C" stroke-width="3.6059" stroke-linecap="round" stroke-linejoin="round" stroke-miterlimit="10" x1="99.349" y1="101.869" x2="159.668" y2="40.944"/>
</g>
</svg>
