<?xml version="1.0" encoding="utf-8"?>
<!-- Generator: Adobe Illustrator 17.0.0, SVG Export Plug-In . SVG Version: 6.00 Build 0)  -->
<!DOCTYPE svg PUBLIC "-//W3C//DTD SVG 1.1//EN" "http://www.w3.org/Graphics/SVG/1.1/DTD/svg11.dtd">
<svg version="1.1" id="Capa_1" xmlns="http://www.w3.org/2000/svg" xmlns:xlink="http://www.w3.org/1999/xlink" x="0px" y="0px"
	 width="200px" height="200px" viewBox="0 0 200 200" enable-background="new 0 0 200 200" xml:space="preserve">
<g>
	<circle fill="#FFFFFF" stroke="#18364C" stroke-width="3" stroke-miterlimit="10" cx="99.671" cy="99.798" r="97.521"/>
	
		<path fill="#FC9D9D" stroke="#E03834" stroke-width="3" stroke-linecap="round" stroke-linejoin="round" stroke-miterlimit="10" d="
		M117.5,162.623c0,2.141-1.736,3.877-3.877,3.877H80.377c-2.141,0-3.877-1.736-3.877-3.877v-0.246c0-2.141,1.736-3.877,3.877-3.877
		h33.246c2.141,0,3.877,1.736,3.877,3.877V162.623z"/>
	
		<path fill="#FCF0F0" stroke="#E03834" stroke-width="3" stroke-linecap="round" stroke-linejoin="round" stroke-miterlimit="10" d="
		M135.776,85.253c0.002-0.083,0.002,1.247,0.002,1.247h-0.006c-0.119-20-16.186-35.817-35.994-35.817
		c-19.833,0-35.917,15.817-35.996,35.817h-0.004c0,0,0-1.309,0.001-1.252c0,0.017-0.001-0.64-0.001-0.623
		c0,2.244,0.216,5.106,0.609,7.237c1.122,8.446,4.319,25.637,13.44,52.637h43.902c9.045-27,12.263-44.274,13.411-52.808
		c0.413-2.182,0.638-4.242,0.638-6.545C135.778,85.119,135.776,85.281,135.776,85.253z"/>
	
		<path fill="#FC9D9D" stroke="#E03834" stroke-width="3" stroke-linecap="round" stroke-linejoin="round" stroke-miterlimit="10" d="
		M134.5,147c0,3.038-2.462,5.5-5.5,5.5H65c-3.038,0-5.5-2.462-5.5-5.5l0,0c0-3.038,2.462-5.5,5.5-5.5h64
		C132.038,141.5,134.5,143.962,134.5,147L134.5,147z"/>
	<path fill="none" stroke="#E03834" stroke-width="3" stroke-linecap="round" stroke-linejoin="round" stroke-miterlimit="10" d="
		M125.671,101.333c-11.046,0-20-8.954-20-20c0-3.866,3.134-7,7-7c3.866,0,7,3.134,7,7c0,11.046-8.954,20-20,20s-20-8.954-20-20
		c0-3.866,3.134-7,7-7c3.866,0,7,3.134,7,7c0,11.046-8.954,20-20,20"/>
	
		<line fill="#FFFFFF" stroke="#18364C" stroke-width="3" stroke-linecap="round" stroke-linejoin="round" stroke-miterlimit="10" x1="98.5" y1="26" x2="98.5" y2="40"/>
	
		<line fill="#FFFFFF" stroke="#18364C" stroke-width="3" stroke-linecap="round" stroke-linejoin="round" stroke-miterlimit="10" x1="170" y1="93.5" x2="156" y2="93.5"/>
	
		<line fill="#FFFFFF" stroke="#18364C" stroke-width="3" stroke-linecap="round" stroke-linejoin="round" stroke-miterlimit="10" x1="153.283" y1="48.55" x2="143.384" y2="58.45"/>
	
		<line fill="#FFFFFF" stroke="#18364C" stroke-width="3" stroke-linecap="round" stroke-linejoin="round" stroke-miterlimit="10" x1="48.384" y1="48.55" x2="58.283" y2="58.45"/>
	
		<line fill="#FFFFFF" stroke="#18364C" stroke-width="3" stroke-linecap="round" stroke-linejoin="round" stroke-miterlimit="10" x1="45" y1="93.5" x2="31" y2="93.5"/>
</g>
</svg>
