<svg height="496pt" viewBox="-1 0 495 496" width="496pt" xmlns="http://www.w3.org/2000/svg"><path style="fill:#FFFFFF;" d="m192.5 432c-4.414062 0-8-3.585938-8-8h-16c0 10.414062 6.710938 19.214844 16 22.527344v17.472656h16v-17.472656c9.289062-3.3125 16-12.113282 16-22.527344 0-13.230469-10.769531-24-24-24-4.414062 0-8-3.585938-8-8s3.585938-8 8-8 8 3.585938 8 8h16c0-10.414062-6.710938-19.214844-16-22.527344v-17.472656h-16v17.472656c-9.289062 3.3125-16 12.113282-16 22.527344 0 13.230469 10.769531 24 24 24 4.414062 0 8 3.585938 8 8s-3.585938 8-8 8zm0 0"/><path style="fill:#FFFFFF;" d="m32.5 392h16v-24h24v-16h-40zm0 0"/><path style="fill:#FFFFFF;" d="m48.5 424h-16v40h40v-16h-24zm0 0"/><path style="fill:#FFFFFF;" d="m336.5 392h16v-40h-40v16h24zm0 0"/><path style="fill:#FFFFFF;" d="m352.5 424h-16v24h-24v16h40zm0 0"/><path style="fill:#FFFFFF;" d="m472.5 160h20.945312l-56-112h-12.945312v-48h-80v48h-144v-48h-80v48h-12.945312l-56 112h20.945312v160h-72v176h384v-96h88zm-112-144h48v32h-48zm-224 0h48v32h-48zm-19.054688 48h310.109376l40 80h-390.109376zm-100.945312 416v-144h125.558594c-22.671875 15.9375-37.558594 42.238281-37.558594 72s14.886719 56.0625 37.558594 72zm288-160h-64v-40c0-4.414062 3.585938-8 8-8h48c4.414062 0 8 3.585938 8 8zm-112 16c39.703125 0 72 32.296875 72 72s-32.296875 72-72 72-72-32.296875-72-72 32.296875-72 72-72zm176 144h-125.558594c22.671875-15.9375 37.558594-42.238281 37.558594-72s-14.886719-56.0625-37.558594-72h125.558594zm16-96v-64h-64v-40c0-13.230469-10.769531-24-24-24h-48c-13.230469 0-24 10.769531-24 24v40h-136v-160h368v224zm0 0"/><path style="fill:#FFFFFF;" d="m104.5 272h96v-96h-96zm16-80h64v64h-64zm0 0"/><path style="fill:#FFFFFF;" d="m216.5 240h112v-64h-112zm16-48h80v32h-80zm0 0"/><path style="fill:#FFFFFF;" d="m344.5 272h96v-96h-96zm16-80h64v64h-64zm0 0"/></svg>