<svg height="682pt" viewBox="-69 -21 682 682.66669" width="682pt" xmlns="http://www.w3.org/2000/svg"><path style="fill:#FFFFFF;" d="m524.910156 304.65625h-62.925781c-9.367187 0-16.992187 7.625-16.992187 16.992188v120.359374c0 9.367188 7.625 16.992188 16.992187 16.992188h62.925781c9.367188 0 16.992188-7.625 16.992188-16.992188v-120.359374c0-9.367188-7.625-16.992188-16.992188-16.992188zm-1.765625 135.582031h-59.390625v-116.824219h59.390625zm0 0"/><path style="fill:#FFFFFF;" d="m473.898438 372.386719c1.660156 1.191406 3.574218 1.769531 5.476562 1.769531 2.914062 0 5.785156-1.351562 7.617188-3.898438l6.195312-8.601562 6.933594 8.890625c3.183594 4.082031 9.078125 4.808594 13.164062 1.625 4.082032-3.183594 4.808594-9.078125 1.625-13.164063l-14.628906-18.753906c-1.816406-2.328125-4.65625-3.675781-7.574219-3.609375-2.953125.054688-5.707031 1.5-7.429687 3.898438l-13.507813 18.753906c-3.027343 4.203125-2.074219 10.0625 2.128907 13.089844zm0 0"/><path style="fill:#FFFFFF;" d="m485.277344 423.121094c1.722656 2.390625 4.476562 3.835937 7.429687 3.894531h.183594c2.882813 0 5.613281-1.328125 7.390625-3.613281l14.628906-18.753906c3.183594-4.082032 2.457032-9.976563-1.628906-13.164063-4.082031-3.183594-9.976562-2.457031-13.160156 1.632813l-6.933594 8.890624-6.195312-8.605468c-3.027344-4.203125-8.886719-5.15625-13.09375-2.128906-4.203126 3.023437-5.15625 8.886718-2.128907 13.09375zm0 0"/><path style="fill:#FFFFFF;" d="m234.796875 112.308594 6.933594-8.890625 6.199219 8.605469c1.828124 2.542968 4.699218 3.898437 7.617187 3.898437 1.898437 0 3.8125-.574219 5.472656-1.773437 4.203125-3.019532 5.15625-8.882813 2.128907-13.089844l-13.507813-18.753906c-1.726563-2.398438-4.476563-3.835938-7.429687-3.898438-2.949219-.054688-5.757813 1.28125-7.574219 3.609375l-14.628907 18.757813c-3.183593 4.085937-2.457031 9.976562 1.625 13.164062 4.082032 3.1875 9.980469 2.460938 13.164063-1.628906zm0 0"/><path style="fill:#FFFFFF;" d="m178.320312 115.921875h.175782c2.953125-.058594 5.707031-1.503906 7.429687-3.894531l13.511719-18.761719c3.027344-4.203125 2.070312-10.0625-2.132812-13.089844-4.199219-3.027343-10.066407-2.070312-13.09375 2.128907l-6.195313 8.601562-6.933594-8.890625c-3.183593-4.082031-9.078125-4.808594-13.160156-1.625-4.085937 3.183594-4.8125 9.078125-1.628906 13.164063l14.628906 18.753906c1.78125 2.28125 4.507813 3.613281 7.398437 3.613281zm0 0"/><path style="fill:#FFFFFF;" d="m412.683594 530.0625c5.175781 0 9.375-4.199219 9.375-9.378906v-511.304688c0-5.179687-4.199219-9.378906-9.375-9.378906h-406.136719c-5.179687 0-9.378906 4.199219-9.378906 9.378906v621.242188c0 5.179687 4.199219 9.378906 9.378906 9.378906h406.136719c5.175781 0 9.375-4.199219 9.375-9.378906v-68.257813c0-5.175781-4.199219-9.375-9.375-9.375-5.179688 0-9.378906 4.199219-9.378906 9.375v58.882813h-34.0625v-438.59375c0-9.308594-7.574219-16.878906-16.878907-16.878906h-285.496093c-9.304688 0-16.878907 7.570312-16.878907 16.878906v438.59375h-34.066406v-602.492188h387.382813v501.929688c0 5.179687 4.199218 9.378906 9.378906 9.378906zm-193.691406-345.53125h131.488281v436.714844h-131.488281zm-150.25 0h131.492187v436.714844h-131.492187zm0 0"/><path style="fill:#FFFFFF;" d="m111.976562 65.53125c5.179688 0 9.378907-4.199219 9.378907-9.375 0-5.179688-4.199219-9.378906-9.378907-9.378906h-45.109374c-9.304688 0-16.878907 7.574218-16.878907 16.878906v67.015625c0 9.308594 7.574219 16.882813 16.878907 16.882813h285.496093c9.304688 0 16.878907-7.574219 16.878907-16.882813v-67.015625c0-9.304688-7.574219-16.878906-16.878907-16.878906h-196.203125c-5.179687 0-9.378906 4.199218-9.378906 9.378906 0 5.175781 4.199219 9.375 9.378906 9.375h194.320313v63.265625h-281.738281v-63.265625zm0 0"/></svg>