<?xml version="1.0" encoding="utf-8"?>
<!-- Generator: Adobe Illustrator 19.2.1, SVG Export Plug-In . SVG Version: 6.00 Build 0)  -->
<svg version="1.1" id="Layer_1" xmlns="http://www.w3.org/2000/svg" xmlns:xlink="http://www.w3.org/1999/xlink" x="0px" y="0px"
	 width="1920px" height="1080px" viewBox="0 0 1920 1080" style="enable-background:new 0 0 1920 1080;" xml:space="preserve">
<style type="text/css">
	.st0{opacity:0.25;clip-path:url(#SVGID_2_);}
	.st1{fill:none;stroke:#FFFFFF;stroke-width:3;stroke-miterlimit:10;}
	
		.st2{fill-rule:evenodd;clip-rule:evenodd;fill:none;stroke:#FFFFFF;stroke-width:3;stroke-linecap:round;stroke-linejoin:round;stroke-miterlimit:22.9256;}
	.st3{fill:none;stroke:#FFFFFF;stroke-width:3;stroke-linecap:round;stroke-linejoin:round;stroke-miterlimit:10;}
	.st4{opacity:0.5;}
</style>
<g>
	<defs>
		<rect id="SVGID_1_" width="1920" height="1080"/>
	</defs>
	<clipPath id="SVGID_2_">
		<use xlink:href="#SVGID_1_"  style="overflow:visible;"/>
	</clipPath>
	<g class="st0">
		<circle class="st1" cx="192.1" cy="51.9" r="7.4"/>
		<circle class="st1" cx="585.1" cy="87" r="7.4"/>
		<circle class="st1" cx="88.3" cy="212.1" r="7.4"/>
		<circle class="st1" cx="457.9" cy="475.9" r="7.4"/>
		<circle class="st1" cx="803.8" cy="246" r="7.4"/>
		<circle class="st1" cx="713.8" cy="315.8" r="7.4"/>
		<circle class="st1" cx="48.7" cy="493.7" r="7.4"/>
		<g>
			<line class="st2" x1="781.6" y1="146" x2="781.6" y2="160.9"/>
			<line class="st2" x1="789.1" y1="153.5" x2="774.2" y2="153.5"/>
		</g>
		<g>
			<line class="st2" x1="532.8" y1="373" x2="522" y2="383.3"/>
			<line class="st2" x1="532.6" y1="383.5" x2="522.2" y2="372.8"/>
		</g>
		<g>
			<line class="st2" x1="237.1" y1="-10.3" x2="244.8" y2="2.4"/>
			<line class="st2" x1="247.3" y1="-7.8" x2="234.6" y2="-0.1"/>
		</g>
		<g>
			<line class="st2" x1="83.4" y1="342.5" x2="73.5" y2="353.6"/>
			<line class="st2" x1="84" y1="353" x2="72.9" y2="343.1"/>
		</g>
		<g>
			<line class="st2" x1="964.7" y1="411.1" x2="964.7" y2="426"/>
			<line class="st2" x1="972.2" y1="418.5" x2="957.3" y2="418.5"/>
		</g>
		<g>
			<line class="st2" x1="441.6" y1="141" x2="429" y2="148.9"/>
			<line class="st2" x1="439.3" y1="151.2" x2="431.4" y2="138.7"/>
		</g>
		<line class="st2" x1="531.3" y1="161.7" x2="526.7" y2="175.9"/>
		<line class="st2" x1="200" y1="153.5" x2="207.8" y2="166.2"/>
		<line class="st2" x1="615.5" y1="366" x2="630.3" y2="367.6"/>
		<line class="st2" x1="293.7" y1="430.2" x2="305.9" y2="421.7"/>
		<line class="st2" x1="532.4" y1="510.1" x2="533.2" y2="524.9"/>
		<line class="st2" x1="58.1" y1="280.3" x2="43.7" y2="284.4"/>
		<line class="st2" x1="357.5" y1="221" x2="343.2" y2="225.2"/>
		<line class="st2" x1="868.1" y1="349" x2="853.8" y2="353.1"/>
		<line class="st2" x1="701.4" y1="29" x2="687.9" y2="22.7"/>
		<line class="st2" x1="420.4" y1="49.4" x2="408.7" y2="40.3"/>
		<g>
			<line class="st2" x1="130.8" y1="497.1" x2="120.8" y2="508.2"/>
			<line class="st2" x1="131.3" y1="507.6" x2="120.2" y2="497.7"/>
		</g>
		<circle class="st1" cx="1859.8" cy="330.9" r="7.4"/>
		<circle class="st1" cx="1270.3" cy="271.5" r="7.4"/>
		<circle class="st1" cx="1381.8" cy="451.4" r="7.4"/>
		<circle class="st1" cx="1878.6" cy="99.7" r="7.4"/>
		<circle class="st1" cx="1131.2" cy="36.9" r="7.4"/>
		<circle class="st1" cx="1576.2" cy="338.5" r="7.4"/>
		<circle class="st1" cx="1022.3" cy="322.1" r="7.4"/>
		<circle class="st1" cx="1787.4" cy="425.2" r="7.4"/>
		<g>
			<line class="st2" x1="1219" y1="166.9" x2="1219" y2="152"/>
			<line class="st2" x1="1211.6" y1="159.4" x2="1226.5" y2="159.4"/>
		</g>
		<g>
			<line class="st2" x1="1729.9" y1="322.1" x2="1722.1" y2="309.4"/>
			<line class="st2" x1="1719.6" y1="319.6" x2="1732.3" y2="311.9"/>
		</g>
		<g>
			<line class="st2" x1="1199.5" y1="453.7" x2="1185.3" y2="449.1"/>
			<line class="st2" x1="1190.1" y1="458.5" x2="1194.7" y2="444.3"/>
		</g>
		<g>
			<line class="st2" x1="876.2" y1="40.2" x2="876.2" y2="25.3"/>
			<line class="st2" x1="868.7" y1="32.8" x2="883.6" y2="32.8"/>
		</g>
		<g>
			<line class="st2" x1="1525.3" y1="170.8" x2="1537.9" y2="162.9"/>
			<line class="st2" x1="1527.6" y1="160.6" x2="1535.6" y2="173.2"/>
		</g>
		<line class="st2" x1="1023.1" y1="469.7" x2="1036.2" y2="462.7"/>
		<line class="st2" x1="1435.6" y1="150.1" x2="1440.2" y2="135.9"/>
		<line class="st2" x1="1734" y1="516.1" x2="1725.7" y2="503.7"/>
		<line class="st2" x1="1766.9" y1="158.3" x2="1759.1" y2="145.6"/>
		<line class="st2" x1="1458.6" y1="404.5" x2="1473" y2="401"/>
		<line class="st2" x1="1216.8" y1="528.5" x2="1221.3" y2="514.3"/>
		<line class="st2" x1="1908.8" y1="31.6" x2="1923.2" y2="27.4"/>
		<line class="st2" x1="1609.4" y1="90.8" x2="1623.7" y2="86.7"/>
		<line class="st2" x1="1013.6" y1="50.6" x2="1027.9" y2="46.4"/>
		<line class="st2" x1="1221.5" y1="306.2" x2="1234.9" y2="312.6"/>
		<line class="st2" x1="1546.5" y1="262.4" x2="1558.3" y2="271.5"/>
		<line class="st2" x1="1871.4" y1="404.9" x2="1885.7" y2="400.7"/>
		<circle class="st1" cx="1345.5" cy="882.5" r="7.4"/>
		<circle class="st1" cx="1273.6" cy="1045.6" r="7.4"/>
		<circle class="st1" cx="1842.2" cy="867.4" r="7.4"/>
		<circle class="st1" cx="1472.6" cy="603.6" r="7.4"/>
		<circle class="st1" cx="771.1" cy="426" r="7.4"/>
		<circle class="st1" cx="1539.8" cy="996.2" r="7.4"/>
		<circle class="st1" cx="1182.7" cy="704.6" r="7.4"/>
		<circle class="st1" cx="1881.8" cy="585.8" r="7.4"/>
		<circle class="st1" cx="1513.5" cy="54.2" r="7.4"/>
		<g>
			<line class="st2" x1="1182.7" y1="824.5" x2="1182.7" y2="809.6"/>
			<line class="st2" x1="1175.2" y1="817.1" x2="1190.1" y2="817.1"/>
		</g>
		<g>
			<line class="st2" x1="1397.8" y1="706.5" x2="1408.5" y2="696.1"/>
			<line class="st2" x1="1398" y1="695.9" x2="1408.3" y2="706.7"/>
		</g>
		<g>
			<line class="st2" x1="1693.5" y1="1089.8" x2="1685.7" y2="1077.1"/>
			<line class="st2" x1="1683.2" y1="1087.3" x2="1696" y2="1079.6"/>
		</g>
		<g>
			<line class="st2" x1="1457.1" y1="1050.4" x2="1442.9" y2="1045.8"/>
			<line class="st2" x1="1447.7" y1="1055.2" x2="1452.3" y2="1041"/>
		</g>
		<g>
			<line class="st2" x1="1847.1" y1="737" x2="1857.1" y2="725.9"/>
			<line class="st2" x1="1846.5" y1="726.4" x2="1857.6" y2="736.4"/>
		</g>
		<g>
			<line class="st2" x1="1003.5" y1="746.2" x2="1003.5" y2="731.3"/>
			<line class="st2" x1="996.1" y1="738.8" x2="1011" y2="738.8"/>
		</g>
		<g>
			<line class="st2" x1="1488.9" y1="828.5" x2="1501.5" y2="820.5"/>
			<line class="st2" x1="1491.2" y1="818.2" x2="1499.2" y2="830.8"/>
		</g>
		<line class="st2" x1="1399.2" y1="807.8" x2="1403.8" y2="793.6"/>
		<line class="st2" x1="1730.5" y1="926" x2="1722.7" y2="913.3"/>
		<line class="st2" x1="1328.1" y1="647.6" x2="1313.2" y2="646"/>
		<line class="st2" x1="1636.9" y1="649.3" x2="1624.6" y2="657.8"/>
		<line class="st2" x1="1368.4" y1="199.2" x2="1382.9" y2="195.7"/>
		<line class="st2" x1="1398.2" y1="569.4" x2="1397.3" y2="554.5"/>
		<line class="st2" x1="1872.5" y1="799.2" x2="1886.8" y2="795.1"/>
		<line class="st2" x1="1573" y1="858.5" x2="1587.4" y2="854.3"/>
		<line class="st2" x1="1095.9" y1="786.6" x2="1110.3" y2="782.4"/>
		<line class="st2" x1="1229.1" y1="940.4" x2="1242.6" y2="946.7"/>
		<line class="st2" x1="1510.1" y1="920" x2="1521.9" y2="929.2"/>
		<g>
			<line class="st2" x1="1799.8" y1="582.4" x2="1809.7" y2="571.3"/>
			<line class="st2" x1="1799.2" y1="571.9" x2="1810.3" y2="581.8"/>
		</g>
		<circle class="st1" cx="70.7" cy="748.6" r="7.4"/>
		<circle class="st1" cx="548.7" cy="854.7" r="7.4"/>
		<circle class="st1" cx="602.4" cy="646.8" r="7.4"/>
		<circle class="st1" cx="51.9" cy="979.8" r="7.4"/>
		<circle class="st1" cx="442.6" cy="1039.6" r="7.4"/>
		<circle class="st1" cx="799.3" cy="1042.5" r="7.4"/>
		<circle class="st1" cx="354.4" cy="741" r="7.4"/>
		<circle class="st1" cx="958.6" cy="795.5" r="7.4"/>
		<circle class="st1" cx="143.2" cy="654.3" r="7.4"/>
		<g>
			<line class="st2" x1="711.5" y1="912.6" x2="711.5" y2="927.5"/>
			<line class="st2" x1="718.9" y1="920.1" x2="704" y2="920.1"/>
		</g>
		<g>
			<line class="st2" x1="200.7" y1="757.4" x2="208.4" y2="770.1"/>
			<line class="st2" x1="210.9" y1="759.8" x2="198.2" y2="767.6"/>
		</g>
		<g>
			<line class="st2" x1="731" y1="625.8" x2="745.2" y2="630.4"/>
			<line class="st2" x1="740.4" y1="621" x2="735.8" y2="635.2"/>
		</g>
		<g>
			<line class="st2" x1="10.5" y1="598.7" x2="0.6" y2="609.8"/>
			<line class="st2" x1="11.1" y1="609.2" x2="0" y2="599.3"/>
		</g>
		<g>
			<line class="st2" x1="955.3" y1="1018.2" x2="955.3" y2="1033.1"/>
			<line class="st2" x1="962.8" y1="1025.7" x2="947.9" y2="1025.7"/>
		</g>
		<g>
			<line class="st2" x1="405.2" y1="908.6" x2="392.7" y2="916.6"/>
			<line class="st2" x1="402.9" y1="918.9" x2="395" y2="906.3"/>
		</g>
		<line class="st2" x1="907.5" y1="609.8" x2="894.3" y2="616.8"/>
		<line class="st2" x1="494.9" y1="929.4" x2="490.3" y2="943.5"/>
		<line class="st2" x1="196.6" y1="563.4" x2="204.8" y2="575.8"/>
		<line class="st2" x1="163.7" y1="921.2" x2="171.4" y2="933.9"/>
		<line class="st2" x1="675.3" y1="1021.5" x2="690.1" y2="1023.1"/>
		<line class="st2" x1="472" y1="674.9" x2="457.5" y2="678.4"/>
		<line class="st2" x1="713.8" y1="551" x2="709.2" y2="565.2"/>
		<line class="st2" x1="21.7" y1="1047.9" x2="7.4" y2="1052.1"/>
		<line class="st2" x1="321.1" y1="988.7" x2="306.8" y2="992.8"/>
		<line class="st2" x1="665" y1="796.7" x2="651.5" y2="790.4"/>
		<line class="st2" x1="384.1" y1="817.1" x2="372.3" y2="808"/>
		<line class="st2" x1="59.1" y1="674.6" x2="44.8" y2="678.8"/>
		<circle class="st1" cx="962" cy="539.4" r="7.4"/>
		<path class="st3" d="M799.9,570c-1-4,1.4-8,5.4-9c4-1,8,1.4,9,5.4"/>
		<path class="st3" d="M892,481c-4.1,0-7.5-3.3-7.5-7.4c0-4.1,3.3-7.5,7.4-7.5"/>
		<path class="st3" d="M646,487c-4.1,0-7.5-3.3-7.5-7.4c0-4.1,3.3-7.5,7.4-7.5"/>
		<path class="st3" d="M746,736c-4.1,0-7.5-3.3-7.5-7.4c0-4.1,3.3-7.5,7.4-7.5"/>
		<path class="st3" d="M881.8,722.4c-4.1,0-7.5-3.3-7.5-7.4c0-4.1,3.3-7.5,7.4-7.5"/>
		<path class="st3" d="M633.5,188.5c0.2,4.1-3,7.6-7.1,7.8c-4.1,0.2-7.6-3-7.8-7.1"/>
		<path class="st3" d="M367.5,327.5c-2.2,3.5-6.8,4.5-10.3,2.3c-3.5-2.2-4.5-6.8-2.3-10.3"/>
		<path class="st3" d="M293,109.8c1.3-3.9,5.5-6,9.4-4.7c3.9,1.3,6,5.5,4.7,9.4"/>
		<path class="st3" d="M162,410c-4.1,0-7.5-3.3-7.5-7.4s3.3-7.5,7.4-7.5"/>
		<path class="st3" d="M1035.1,611.3c-1.2-3.9,1.1-8.1,5.1-9.2c3.9-1.2,8.1,1.1,9.2,5.1"/>
		<path class="st3" d="M1131,519c-4.1,0-7.5-3.3-7.5-7.4c0-4.1,3.3-7.5,7.4-7.5"/>
		<path class="st3" d="M1144,365.7c-2.2,3.5-6.7,4.6-10.2,2.4s-4.6-6.7-2.4-10.2"/>
		<path class="st3" d="M1097,173c-4.1,0-7.5-3.3-7.5-7.4c0-4.1,3.3-7.5,7.4-7.5"/>
		<path class="st3" d="M940.3,111.2c0.4,4.1-2.7,7.7-6.8,8.1c-4.1,0.4-7.7-2.7-8.1-6.8"/>
		<path class="st3" d="M518.9,752.8c1.7-3.7,6.2-5.3,9.9-3.6c3.7,1.7,5.3,6.2,3.6,9.9"/>
		<path class="st3" d="M296.5,645.4c-4.1,0-7.5-3.3-7.5-7.4s3.3-7.5,7.4-7.5"/>
		<path class="st3" d="M271.7,869.4c1.5,3.8-0.3,8.2-4.2,9.7c-3.8,1.5-8.2-0.3-9.7-4.2"/>
		<path class="st3" d="M1216.9,76.4c-0.4-4.1,2.6-7.7,6.7-8.1c4.1-0.4,7.7,2.6,8.1,6.7"/>
		<path class="st3" d="M1356.3,75.3c0.5-4.1,4.3-6.9,8.4-6.4c4.1,0.5,6.9,4.3,6.4,8.4"/>
		<path class="st3" d="M1636.6,523.6c-4.1,0-7.5-3.3-7.5-7.4c0-4.1,3.3-7.5,7.4-7.5"/>
		<path class="st3" d="M1568.1,744.5c4,0.8,6.6,4.8,5.8,8.8c-0.8,4-4.8,6.6-8.8,5.8"/>
		<path class="st3" d="M1307,783c-4.1,0-7.5-3.3-7.5-7.4c0-4.1,3.3-7.5,7.4-7.5"/>
		<path class="st3" d="M1206.1,604.9c0.5,4.1-2.3,7.8-6.4,8.4c-4.1,0.5-7.8-2.3-8.4-6.4"/>
		<path class="st3" d="M875.5,933.4c-4.1,0-7.5-3.3-7.5-7.4s3.3-7.5,7.4-7.5"/>
		<path class="st3" d="M1006.2,965.5c-1.1,4-5.3,6.2-9.2,5.1c-4-1.1-6.2-5.3-5.1-9.2"/>
		<path class="st3" d="M1152.5,1019.4c-4.1,0-7.5-3.3-7.5-7.4s3.3-7.5,7.4-7.5"/>
		<path class="st3" d="M556.6,1016.8c0-4.1,3.3-7.5,7.4-7.5c4.1,0,7.5,3.3,7.5,7.4"/>
		<path class="st3" d="M1669.5,210.4c-4.1,0-7.5-3.3-7.5-7.4s3.3-7.5,7.4-7.5"/>
		<path class="st3" d="M1773.5,685.4c-4.1,0-7.5-3.3-7.5-7.4s3.3-7.5,7.4-7.5"/>
		<path class="st3" d="M1629,978c-4.1,0-7.5-3.3-7.5-7.4c0-4.1,3.3-7.5,7.4-7.5"/>
		<path class="st3" d="M1826,1005.7c1.3-3.9,5.5-6,9.4-4.7c3.9,1.3,6,5.5,4.7,9.4"/>
		<g>
			<path class="st3" d="M1510.4,510.4c-3.3,2.5-8,1.8-10.4-1.5c-2.5-3.3-1.8-8,1.5-10.4"/>
			<path class="st3" d="M1509.8,511c3.3-2.5,8-1.8,10.4,1.5c2.5,3.3,1.8,8-1.5,10.4"/>
		</g>
		<g>
			<path class="st3" d="M1635,383.1c0.7-4.1,4.5-6.8,8.6-6.2c4.1,0.7,6.8,4.5,6.2,8.6"/>
			<path class="st3" d="M1635,382.3c-0.7,4.1-4.5,6.8-8.6,6.2s-6.8-4.5-6.2-8.6"/>
		</g>
		<g>
			<path class="st3" d="M1421.4,298.4c-1-4,1.4-8,5.4-9.1c4-1,8,1.4,9.1,5.4"/>
			<path class="st3" d="M1421.1,297.7c1,4-1.4,8-5.4,9.1s-8-1.4-9.1-5.4"/>
		</g>
		<g>
			<path class="st3" d="M1307.1,385.8c-3.6,2.1-8.1,0.9-10.2-2.7c-2.1-3.6-0.9-8.1,2.7-10.2"/>
			<path class="st3" d="M1306.5,386.3c3.6-2.1,8.1-0.9,10.2,2.7s0.9,8.1-2.7,10.2"/>
		</g>
		<g>
			<path class="st3" d="M1712.7,806.8c0.8,4-1.8,8-5.8,8.8c-4,0.8-8-1.8-8.8-5.8"/>
			<path class="st3" d="M1713,807.6c-0.8-4,1.8-8,5.8-8.8c4-0.8,8,1.8,8.8,5.8"/>
		</g>
		<g>
			<path class="st3" d="M1386.1,963.9c-2.9,2.9-7.6,2.9-10.5,0s-2.9-7.6,0-10.5"/>
			<path class="st3" d="M1385.6,964.5c2.9-2.9,7.6-2.9,10.5,0c2.9,2.9,2.9,7.6,0,10.5"/>
		</g>
		<g>
			<path class="st3" d="M962.9,209.1c0.8,4-1.8,8-5.8,8.8c-4,0.8-8-1.8-8.8-5.8"/>
			<path class="st3" d="M963.2,209.8c-0.8-4,1.8-8,5.8-8.8s8,1.8,8.8,5.8"/>
		</g>
		<g>
			<path class="st3" d="M1071.7,886.8c0.8,4-1.8,8-5.8,8.8c-4,0.8-8-1.8-8.8-5.8"/>
			<path class="st3" d="M1072,887.6c-0.8-4,1.8-8,5.8-8.8c4-0.8,8,1.8,8.8,5.8"/>
		</g>
		<g>
			<path class="st3" d="M808.2,829.7c-3.8-1.6-5.5-6-3.9-9.8c1.6-3.8,6-5.5,9.8-3.9"/>
			<path class="st3" d="M807.5,829.5c3.8,1.6,5.5,6,3.9,9.8c-1.6,3.8-6,5.5-9.8,3.9"/>
		</g>
		<g>
			<path class="st3" d="M387.2,558.2c-4-0.8-6.7-4.7-5.9-8.7c0.8-4,4.7-6.7,8.7-5.9"/>
			<path class="st3" d="M386.5,558.2c4,0.8,6.7,4.7,5.9,8.7s-4.7,6.7-8.7,5.9"/>
		</g>
		<g>
			<path class="st3" d="M511.7,272.8c0.8,4-1.8,8-5.8,8.8s-8-1.8-8.8-5.8"/>
			<path class="st3" d="M512,273.6c-0.8-4,1.8-8,5.8-8.8c4-0.8,8,1.8,8.8,5.8"/>
		</g>
		<g>
			<path class="st3" d="M218.1,276.9c-3.2,2.5-7.9,2-10.5-1.3c-2.5-3.2-2-7.9,1.3-10.5"/>
			<path class="st3" d="M217.6,277.5c3.2-2.5,7.9-2,10.5,1.3c2.5,3.2,2,7.9-1.3,10.5"/>
		</g>
		<g>
			<path class="st3" d="M84.7,78.8c0.8,4-1.8,8-5.8,8.8c-4,0.8-8-1.8-8.8-5.8"/>
			<path class="st3" d="M85,79.6c-0.8-4,1.8-8,5.8-8.8c4-0.8,8,1.8,8.8,5.8"/>
		</g>
		<g>
			<path class="st3" d="M71.9,860.1c0.8,4-1.8,8-5.8,8.8s-8-1.8-8.8-5.8"/>
			<path class="st3" d="M72.2,860.8c-0.8-4,1.8-8,5.8-8.8s8,1.8,8.8,5.8"/>
		</g>
		<g>
			<path class="st3" d="M1869.1,218.2c-2.6,3.2-7.3,3.7-10.5,1.1c-3.2-2.6-3.7-7.3-1.1-10.5"/>
			<path class="st3" d="M1868.7,218.9c2.6-3.2,7.3-3.7,10.5-1.1c3.2,2.6,3.7,7.3,1.1,10.5"/>
		</g>
		<g>
			<path class="st3" d="M1737.7,32.3c0.8,4-1.8,8-5.8,8.8c-4,0.8-8-1.8-8.8-5.8"/>
			<path class="st3" d="M1738,33c-0.8-4,1.8-8,5.8-8.8c4-0.8,8,1.8,8.8,5.8"/>
		</g>
		<g>
			<path class="st3" d="M180.5,1051.2c4.1,0.3,7.2,3.8,6.9,7.9c-0.3,4.1-3.8,7.2-7.9,6.9"/>
			<path class="st3" d="M181.2,1051.2c-4.1-0.3-7.2-3.8-6.9-7.9c0.3-4.1,3.8-7.2,7.9-6.9"/>
		</g>
	</g>
</g>
</svg>
