<?xml version="1.0" encoding="iso-8859-1"?>
<!-- Generator: Adobe Illustrator 19.0.0, SVG Export Plug-In . SVG Version: 6.00 Build 0)  -->
<svg xmlns="http://www.w3.org/2000/svg" xmlns:xlink="http://www.w3.org/1999/xlink" version="1.1" id="Layer_1" x="0px" y="0px" viewBox="0 0 512 512" style="enable-background:new 0 0 512 512;" xml:space="preserve" width="512" height="512">
<g>
	<path style="fill:#FFFFFF;" d="M344.084,186.905V70.583c0-16.596-13.502-30.098-30.098-30.098h-133.17c-4.142,0-7.5,3.358-7.5,7.5s3.358,7.5,7.5,7.5   h133.17c8.325,0,15.098,6.773,15.098,15.098v108.822H94.267V70.583c0-8.325,6.773-15.098,15.098-15.098h41.451   c4.142,0,7.5-3.358,7.5-7.5s-3.358-7.5-7.5-7.5h-41.451c-16.596,0-30.098,13.502-30.098,30.098v116.322c0,4.142,3.358,7.5,7.5,7.5   h249.817C340.726,194.405,344.084,191.047,344.084,186.905z"/>
	<path style="fill:#FFFFFF;" d="M144.254,97.893c-4.142,0-7.5,3.358-7.5,7.5v12.202c0,4.142,3.358,7.5,7.5,7.5s7.5-3.358,7.5-7.5v-12.202   C151.754,101.251,148.396,97.893,144.254,97.893z"/>
	<path style="fill:#FFFFFF;" d="M286.597,117.595v-12.202c0-4.142-3.358-7.5-7.5-7.5s-7.5,3.358-7.5,7.5v12.202c0,4.142,3.358,7.5,7.5,7.5   S286.597,121.737,286.597,117.595z"/>
	<path style="fill:#FFFFFF;" d="M211.675,131.609c8.649,0,16.772-3.618,22.287-9.926c2.726-3.118,2.408-7.856-0.71-10.583   c-3.118-2.727-7.856-2.409-10.583,0.71c-2.666,3.049-6.673,4.798-10.994,4.798c-4.321,0-8.328-1.749-10.994-4.798   c-2.726-3.12-7.465-3.437-10.583-0.711c-3.119,2.726-3.438,7.464-0.711,10.583C194.901,127.991,203.025,131.609,211.675,131.609z"/>
	<path style="fill:#FFFFFF;" d="M261.568,219.634h-58.974c-9.212,0-17.383,5.492-20.866,14.006l-31.443,69.786c-0.044,0.097-0.085,0.195-0.125,0.294   c-3.234,8.102,2.911,17.165,11.618,17.165h23.42c0,0-28.238,74.325-28.27,74.41c-3.705,9.753,9.117,17.251,16.155,10.042   l95.468-97.78c0.04-0.04,0.079-0.081,0.117-0.122c7.306-7.827,1.536-21.054-9.149-21.054h-17.046c0,0,29.712-47.603,29.713-47.605   C277.209,230.726,271.317,219.634,261.568,219.634z M226.298,283.963c-4.649,7.449,0.91,17.417,9.66,17.417h17.659l-73.604,75.387   c0,0,21.103-55.544,21.121-55.592c2.773-7.3-2.998-15.291-10.697-15.291h-24.807l29.834-66.214   c0.044-0.097,0.085-0.195,0.125-0.294c1.153-2.881,3.903-4.742,7.006-4.742h54.493C257.088,234.634,226.34,283.896,226.298,283.963   z"/>
	<path style="fill:#FFFFFF;" d="M455.339,190.758l0-73.923c0-32.999-26.847-59.845-59.846-59.845h-12.252C376.886,24.553,348.255,0,313.985,0h-204.62   c-38.92,0-70.583,31.664-70.583,70.583v358.786c-16.831,3.477-29.522,18.412-29.522,36.257V485.6c0,14.557,11.843,26.4,26.4,26.4   h352.032c14.557,0,26.4-11.843,26.4-26.4v-19.974c0-17.845-12.692-32.781-29.522-36.257v-21.69h31.255   c47.926,0,86.917-38.991,86.917-86.917V263.71C502.741,232.183,483.894,203.513,455.339,190.758z M452.316,263.71v57.053   c0,20.122-16.37,36.492-36.492,36.492h-31.255v-77.273h13.792c21.808,0,40.784-12.321,50.358-30.361   C451.054,253.889,452.316,258.714,452.316,263.71z M440.339,165.772v57.231c0,0.029-0.002,0.058-0.002,0.087   c0,22.692-19.138,41.891-41.976,41.891h-13.792V161.225h51.223C438.299,161.225,440.339,163.265,440.339,165.772z M404.915,146.225   h-20.346v-38.812h10.925c5.195,0,9.421,4.226,9.421,9.421V146.225z M440.339,116.834v29.924c-1.481-0.354-3.024-0.534-4.547-0.534   h-15.877v-29.391c0-13.466-10.955-24.421-24.421-24.421h-10.925V71.989h10.925C420.222,71.989,440.339,92.107,440.339,116.834z    M399.091,465.626V485.6c0,6.286-5.114,11.4-11.4,11.4H35.659c-6.286,0-11.4-5.114-11.4-11.4v-19.974   c0-12.143,9.879-22.022,22.022-22.022h257.201c4.142,0,7.5-3.358,7.5-7.5s-3.358-7.5-7.5-7.5H53.782V70.583   C53.782,39.935,78.716,15,109.365,15c0,0,204.533,0,204.62,0c29.172,0,54.322,24.208,55.536,53.328   c0.031,0.751,0.048,360.277,0.048,360.277h-36.086c-4.142,0-7.5,3.358-7.5,7.5s3.358,7.5,7.5,7.5h43.586   C389.212,443.604,399.091,453.483,399.091,465.626z M487.741,320.763c0,39.655-32.262,71.917-71.917,71.917h-31.255v-20.424h31.255   c28.393,0,51.492-23.099,51.492-51.492V263.71c0-11.752-4.607-22.875-12.778-31.163c0.025-0.15,0.042-0.302,0.067-0.453   c0.486-3.001,0.734-6.051,0.734-9.091v-15.431c19.742,11.475,32.401,32.851,32.401,56.138V320.763z"/>
</g>















</svg>
