<?xml version="1.0"?>
<svg xmlns="http://www.w3.org/2000/svg" viewBox="0 0 64 64" width="512" height="512" fill="#fff">
	<g id="outline">
		<path style="fill:#FFFFFF;" d="M32,2A30,30,0,1,0,62,32,30.034,30.034,0,0,0,32,2Zm0,58A28,28,0,1,1,60,32,28.032,28.032,0,0,1,32,60Z"/>
		
		<path style="fill:#FFFFFF;" d="M32,7A25,25,0,1,0,57,32,25.028,25.028,0,0,0,32,7Zm0,48A23,23,0,1,1,55,32,23.025,23.025,0,0,1,32,55Z"/>
		
		<path style="fill:#FFFFFF;" d="M27.833,34.753l-2.04,2.04,1.414,1.414,2.04-2.04a4.992,4.992,0,0,0,6.92-6.92l7.54-7.54-1.414-1.414-7.54,7.54a4.992,4.992,0,0,0-6.92,6.92ZM32,29a3,3,0,1,1-3,3A3,3,0,0,1,32,29Z"/>
		
		<polygon points="33 14 33 11 31 11 31 14 31 17 33 17 33 14"/>
			<rect style="fill:#FFFFFF;" x="22" y="13.412" width="2" height="6" transform="translate(-5.124 13.698) rotate(-29.999)"/>
			<rect style="fill:#FFFFFF;" x="15.411" y="20" width="2" height="6" transform="translate(-11.713 25.713) rotate(-60.001)"/>
			<rect style="fill:#FFFFFF;" x="46.588" y="38" width="2" height="6" transform="translate(-11.713 61.713) rotate(-60.001)"/>
			<rect style="fill:#FFFFFF;" x="11" y="31" width="6" height="2"/>
			<rect style="fill:#FFFFFF;" x="47" y="31" width="6" height="2"/>
			<rect style="fill:#FFFFFF;" x="13.412" y="40" width="6" height="2" transform="translate(-18.299 13.696) rotate(-29.995)"/>
			<rect style="fill:#FFFFFF;" x="44.588" y="22" width="6" height="2" transform="translate(-5.124 26.875) rotate(-29.999)"/>
			<rect style="fill:#FFFFFF;" x="38" y="15.411" width="6" height="2" transform="translate(6.29 43.716) rotate(-60.005)"/>
			<rect style="fill:#FFFFFF;" x="25.953" y="11.665" width="2" height="3" transform="translate(-2.489 7.424) rotate(-15)"/>
			<rect style="fill:#FFFFFF;" x="17.212" y="16.711" width="2" height="3.001" transform="translate(-7.543 18.211) rotate(-45)"/>
			<rect style="fill:#FFFFFF;" x="12.165" y="25.453" width="2" height="3" transform="translate(-16.277 32.693) rotate(-75)"/>
			<rect style="fill:#FFFFFF;" x="49.836" y="35.548" width="2" height="3" transform="translate(1.893 76.562) rotate(-75)"/>
			<rect style="fill:#FFFFFF;" x="11.665" y="36.047" width="3" height="2" transform="translate(-9.14 4.67) rotate(-15)"/>
			<rect style="fill:#FFFFFF;" x="49.336" y="25.953" width="3" height="2" transform="translate(-5.244 14.075) rotate(-15)"/>
			<rect style="fill:#FFFFFF;" x="44.288" y="17.212" width="3.001" height="2" transform="translate(0.534 37.711) rotate(-45)"/>
			<rect style="fill:#FFFFFF;" x="35.548" y="12.165" width="3" height="2" transform="translate(14.743 45.542) rotate(-75)"/>
			<path style="fill:#FFFFFF;" d="M43,42H21a1,1,0,0,0-1,1v6a1,1,0,0,0,1,1H43a1,1,0,0,0,1-1V43A1,1,0,0,0,43,42Zm-1,6H22V44H42Z"/>
		</g>
	</svg>