<?xml version="1.0" encoding="iso-8859-1"?>
<!-- Generator: Adobe Illustrator 19.0.0, SVG Export Plug-In . SVG Version: 6.00 Build 0)  -->
<svg version="1.1" id="Capa_1" xmlns="http://www.w3.org/2000/svg" xmlns:xlink="http://www.w3.org/1999/xlink" x="0px" y="0px"
	 viewBox="0 0 470 470" style="enable-background:new 0 0 470 470;" xml:space="preserve">
<g>
	<path style="fill:#FFFFFF;" d="M372.202,9.083c-1.82-1.421-4.194-1.926-6.435-1.365L262.853,33.446C258.576,14.332,241.486,0,221.101,0
		c-21.036,0-38.563,15.262-42.121,35.292h-31.154c-29.176,0-52.912,22.925-52.912,51.103c0,4.143,3.358,7.5,7.5,7.5
		s7.5-3.357,7.5-7.5c0-19.907,17.007-36.103,37.912-36.103h30.482v15h-30.482c-4.142,0-7.5,3.357-7.5,7.5s3.358,7.5,7.5,7.5h30.482
		v40.224c-16.877,7.715-31.3,19.798-41.931,35.182c-11.894,17.212-18.181,37.406-18.181,58.4V462.5c0,4.143,3.358,7.5,7.5,7.5
		h190.809c4.142,0,7.5-3.357,7.5-7.5V214.098c0-20.994-6.287-41.188-18.181-58.4c-10.631-15.384-25.054-27.467-41.931-35.182V93.551
		l101.874,25.468c0.601,0.15,1.211,0.224,1.818,0.224c1.656,0,3.284-0.549,4.616-1.589c1.82-1.421,2.884-3.602,2.884-5.911V14.994
		C375.086,12.685,374.022,10.504,372.202,9.083z M221.101,15c15.325,0,27.792,12.468,27.792,27.792v75.171h-55.584V42.792
		C193.309,27.468,205.776,15,221.101,15z M133.196,455v-46.653h175.809V455H133.196z M308.681,206.598H185.696
		c-4.142,0-7.5,3.357-7.5,7.5s3.358,7.5,7.5,7.5h123.309v171.749H133.196V221.598h22.5c4.142,0,7.5-3.357,7.5-7.5
		s-3.358-7.5-7.5-7.5h-22.176c2.737-32.623,23.201-60.896,53.797-73.635h67.567C285.48,145.702,305.944,173.975,308.681,206.598z
		 M360.086,102.138l-96.193-24.048V48.648L360.086,24.6V102.138z"/>
	<path style="fill:#FFFFFF;" d="M180.405,362.148c10.516,10.597,24.588,16.198,40.696,16.198s30.181-5.602,40.696-16.198
		c10.881-10.966,17.049-26.568,16.924-42.805c-0.233-30.102-21.573-57.002-22.482-58.133c-1.474-1.835-3.728-2.885-6.077-2.798
		c-2.353,0.072-4.535,1.244-5.894,3.166c0,0.001-0.605,0.856-1.509,2.135c-3.672-8.003-9.109-17.765-16.277-25.147
		c-1.412-1.455-3.354-2.276-5.381-2.276s-3.969,0.821-5.381,2.276c-7.167,7.383-12.606,17.145-16.278,25.147
		c-0.904-1.278-1.509-2.134-1.509-2.134c-1.359-1.923-3.541-3.095-5.894-3.167c-2.346-0.089-4.603,0.963-6.077,2.798
		c-0.908,1.131-22.248,28.031-22.481,58.133C163.355,335.581,169.523,351.183,180.405,362.148z M191.911,279.043l1.786,2.525
		c2.172,3.07,3.886,5.474,8.047,5.252c2.965-0.174,5.549-2.082,6.588-4.865c0.022-0.06,0.081-0.226,0.17-0.493
		c1.344-4.024,5.657-15.937,12.599-25.855c6.942,9.919,11.255,21.831,12.599,25.855c0.089,0.267,0.148,0.434,0.17,0.493
		c1.283,3.438,4.862,5.443,8.468,4.738c2.949-0.577,3.958-2.003,6.168-5.126l1.785-2.524c5.606,9.152,13.308,24.579,13.43,40.417
		c0.095,12.267-4.487,23.976-12.571,32.123c-7.637,7.695-18.027,11.764-30.049,11.764s-22.412-4.067-30.049-11.764
		c-8.084-8.147-12.667-19.856-12.572-32.123C178.603,303.621,186.306,288.192,191.911,279.043z"/>
</g>
<g>
</g>
<g>
</g>
<g>
</g>
<g>
</g>
<g>
</g>
<g>
</g>
<g>
</g>
<g>
</g>
<g>
</g>
<g>
</g>
<g>
</g>
<g>
</g>
<g>
</g>
<g>
</g>
<g>
</g>
</svg>
