<svg viewBox="0 0 16 16"><path d="M16 4.7a5.87 5.87 0 0 0-.37-1.94 3.92 3.92 0 0 0-.92-1.42 3.91 3.91 0 0 0-1.42-.92A5.88 5.88 0 0 0 11.3 0H4.7a5.88 5.88 0 0 0-1.94.37A4.09 4.09 0 0 0 .42 2.76 5.87 5.87 0 0 0 0 4.7v6.6a5.87 5.87 0 0 0 .37 1.94 4.09 4.09 0 0 0 2.34 2.34A5.87 5.87 0 0 0 4.7 16h6.6a5.87 5.87 0 0 0 1.94-.37 4.09 4.09 0 0 0 2.34-2.34A5.87 5.87 0 0 0 16 11.3V8 4.7zm-1.44 6.53a4.43 4.43 0 0 1-.28 1.49 2.65 2.65 0 0 1-1.52 1.52 4.45 4.45 0 0 1-1.49.28H4.81a4.46 4.46 0 0 1-1.49-.28 2.65 2.65 0 0 1-1.52-1.52 4.43 4.43 0 0 1-.28-1.49V8 4.77a4.43 4.43 0 0 1 .28-1.49 2.65 2.65 0 0 1 1.48-1.52 4.43 4.43 0 0 1 1.49-.28h6.46a4.43 4.43 0 0 1 1.49.28 2.65 2.65 0 0 1 1.52 1.52 4.43 4.43 0 0 1 .28 1.49V8s.03 2.39-.01 3.23zM8 3.89A4.11 4.11 0 1 0 12.11 8 4.11 4.11 0 0 0 8 3.89zm0 6.77A2.67 2.67 0 1 1 10.67 8 2.67 2.67 0 0 1 8 10.67zm4.27-7.9a1 1 0 1 0 1 1 1 1 0 0 0-1-.99z"></path></svg>