<svg height="512pt" viewBox="-76 0 512 512" width="512pt" xmlns="http://www.w3.org/2000/svg" fill="#ffffff"><path d="m7.5 123.5c4.140625 0 7.5-3.355469 7.5-7.5v-20.25c0-4.144531-3.359375-7.5-7.5-7.5s-7.5 3.355469-7.5 7.5v20.25c0 4.144531 3.359375 7.5 7.5 7.5zm0 0"/><path d="m351.5 440.5c-4.140625 0-7.5 3.355469-7.5 7.5v36.5c0 6.894531-5.605469 12.5-12.5 12.5h-304c-6.894531 0-12.5-5.605469-12.5-12.5v-336.667969c0-4.140625-3.359375-7.5-7.5-7.5s-7.5 3.359375-7.5 7.5v336.667969c0 15.164062 12.335938 27.5 27.5 27.5h304c15.164062 0 27.5-12.335938 27.5-27.5v-36.5c0-4.144531-3.359375-7.5-7.5-7.5zm0 0"/><path d="m331.5 0h-304c-15.164062 0-27.5 12.335938-27.5 27.5v36.5c0 4.144531 3.359375 7.5 7.5 7.5s7.5-3.355469 7.5-7.5v-36.5c0-6.894531 5.605469-12.5 12.5-12.5h304c6.894531 0 12.5 5.605469 12.5 12.5v388.167969c0 4.140625 3.359375 7.5 7.5 7.5s7.5-3.359375 7.5-7.5v-388.167969c0-15.164062-12.335938-27.5-27.5-27.5zm0 0"/><path d="m321.5 482c4.140625 0 7.5-3.355469 7.5-7.5v-437c0-4.144531-3.359375-7.5-7.5-7.5h-284c-4.140625 0-7.5 3.355469-7.5 7.5v437c0 4.144531 3.359375 7.5 7.5 7.5zm-276.5-437h269v422h-269zm0 0"/><path d="m179.5 260.5c-53.761719 0-97.5 43.738281-97.5 97.5s43.738281 97.5 97.5 97.5 97.5-43.738281 97.5-97.5-43.738281-97.5-97.5-97.5zm0 180c-45.492188 0-82.5-37.011719-82.5-82.5s37.007812-82.5 82.5-82.5 82.5 37.011719 82.5 82.5-37.007812 82.5-82.5 82.5zm0 0"/><path d="m282.5 77.75h-3c-4.140625 0-7.5 3.355469-7.5 7.5s3.359375 7.5 7.5 7.5h3c4.140625 0 7.5-3.355469 7.5-7.5s-3.359375-7.5-7.5-7.5zm0 0"/><path d="m282.5 113.75h-3c-4.140625 0-7.5 3.355469-7.5 7.5s3.359375 7.5 7.5 7.5h3c4.140625 0 7.5-3.355469 7.5-7.5s-3.359375-7.5-7.5-7.5zm0 0"/><path d="m253.5 111.25h3c4.140625 0 7.5-3.355469 7.5-7.5s-3.359375-7.5-7.5-7.5h-3c-4.140625 0-7.5 3.355469-7.5 7.5s3.359375 7.5 7.5 7.5zm0 0"/><path d="m253.5 148.25h3c4.140625 0 7.5-3.355469 7.5-7.5s-3.359375-7.5-7.5-7.5h-3c-4.140625 0-7.5 3.355469-7.5 7.5s3.359375 7.5 7.5 7.5zm0 0"/><path d="m253.5 183.25h3c4.140625 0 7.5-3.355469 7.5-7.5s-3.359375-7.5-7.5-7.5h-3c-4.140625 0-7.5 3.355469-7.5 7.5s3.359375 7.5 7.5 7.5zm0 0"/><path d="m253.5 219.25h3c4.140625 0 7.5-3.355469 7.5-7.5s-3.359375-7.5-7.5-7.5h-3c-4.140625 0-7.5 3.355469-7.5 7.5s3.359375 7.5 7.5 7.5zm0 0"/><path d="m282.5 149.75h-3c-4.140625 0-7.5 3.355469-7.5 7.5s3.359375 7.5 7.5 7.5h3c4.140625 0 7.5-3.355469 7.5-7.5s-3.359375-7.5-7.5-7.5zm0 0"/><path d="m282.5 185.75h-3c-4.140625 0-7.5 3.355469-7.5 7.5s3.359375 7.5 7.5 7.5h3c4.140625 0 7.5-3.355469 7.5-7.5s-3.359375-7.5-7.5-7.5zm0 0"/><path d="m282.5 221.75h-3c-4.140625 0-7.5 3.355469-7.5 7.5s3.359375 7.5 7.5 7.5h3c4.140625 0 7.5-3.355469 7.5-7.5s-3.359375-7.5-7.5-7.5zm0 0"/><path d="m229.5 92.75h3c4.140625 0 7.5-3.355469 7.5-7.5s-3.359375-7.5-7.5-7.5h-3c-4.140625 0-7.5 3.355469-7.5 7.5s3.359375 7.5 7.5 7.5zm0 0"/><path d="m229.5 128.75h3c4.140625 0 7.5-3.355469 7.5-7.5s-3.359375-7.5-7.5-7.5h-3c-4.140625 0-7.5 3.355469-7.5 7.5s3.359375 7.5 7.5 7.5zm0 0"/><path d="m203.5 111.25h3c4.140625 0 7.5-3.355469 7.5-7.5s-3.359375-7.5-7.5-7.5h-3c-4.140625 0-7.5 3.355469-7.5 7.5s3.359375 7.5 7.5 7.5zm0 0"/><path d="m203.5 148.25h3c4.140625 0 7.5-3.355469 7.5-7.5s-3.359375-7.5-7.5-7.5h-3c-4.140625 0-7.5 3.355469-7.5 7.5s3.359375 7.5 7.5 7.5zm0 0"/><path d="m203.5 183.25h3c4.140625 0 7.5-3.355469 7.5-7.5s-3.359375-7.5-7.5-7.5h-3c-4.140625 0-7.5 3.355469-7.5 7.5s3.359375 7.5 7.5 7.5zm0 0"/><path d="m203.5 219.25h3c4.140625 0 7.5-3.355469 7.5-7.5s-3.359375-7.5-7.5-7.5h-3c-4.140625 0-7.5 3.355469-7.5 7.5s3.359375 7.5 7.5 7.5zm0 0"/><path d="m229.5 164.75h3c4.140625 0 7.5-3.355469 7.5-7.5s-3.359375-7.5-7.5-7.5h-3c-4.140625 0-7.5 3.355469-7.5 7.5s3.359375 7.5 7.5 7.5zm0 0"/><path d="m229.5 200.75h3c4.140625 0 7.5-3.355469 7.5-7.5s-3.359375-7.5-7.5-7.5h-3c-4.140625 0-7.5 3.355469-7.5 7.5s3.359375 7.5 7.5 7.5zm0 0"/><path d="m229.5 236.75h3c4.140625 0 7.5-3.355469 7.5-7.5s-3.359375-7.5-7.5-7.5h-3c-4.140625 0-7.5 3.355469-7.5 7.5s3.359375 7.5 7.5 7.5zm0 0"/><path d="m179.5 92.75h3c4.140625 0 7.5-3.355469 7.5-7.5s-3.359375-7.5-7.5-7.5h-3c-4.140625 0-7.5 3.355469-7.5 7.5s3.359375 7.5 7.5 7.5zm0 0"/><path d="m179.5 128.75h3c4.140625 0 7.5-3.355469 7.5-7.5s-3.359375-7.5-7.5-7.5h-3c-4.140625 0-7.5 3.355469-7.5 7.5s3.359375 7.5 7.5 7.5zm0 0"/><path d="m153.5 111.25h3c4.140625 0 7.5-3.355469 7.5-7.5s-3.359375-7.5-7.5-7.5h-3c-4.140625 0-7.5 3.355469-7.5 7.5s3.359375 7.5 7.5 7.5zm0 0"/><path d="m153.5 148.25h3c4.140625 0 7.5-3.355469 7.5-7.5s-3.359375-7.5-7.5-7.5h-3c-4.140625 0-7.5 3.355469-7.5 7.5s3.359375 7.5 7.5 7.5zm0 0"/><path d="m153.5 183.25h3c4.140625 0 7.5-3.355469 7.5-7.5s-3.359375-7.5-7.5-7.5h-3c-4.140625 0-7.5 3.355469-7.5 7.5s3.359375 7.5 7.5 7.5zm0 0"/><path d="m153.5 219.25h3c4.140625 0 7.5-3.355469 7.5-7.5s-3.359375-7.5-7.5-7.5h-3c-4.140625 0-7.5 3.355469-7.5 7.5s3.359375 7.5 7.5 7.5zm0 0"/><path d="m179.5 164.75h3c4.140625 0 7.5-3.355469 7.5-7.5s-3.359375-7.5-7.5-7.5h-3c-4.140625 0-7.5 3.355469-7.5 7.5s3.359375 7.5 7.5 7.5zm0 0"/><path d="m179.5 200.75h3c4.140625 0 7.5-3.355469 7.5-7.5s-3.359375-7.5-7.5-7.5h-3c-4.140625 0-7.5 3.355469-7.5 7.5s3.359375 7.5 7.5 7.5zm0 0"/><path d="m179.5 236.75h3c4.140625 0 7.5-3.355469 7.5-7.5s-3.359375-7.5-7.5-7.5h-3c-4.140625 0-7.5 3.355469-7.5 7.5s3.359375 7.5 7.5 7.5zm0 0"/><path d="m129.5 92.75h3c4.140625 0 7.5-3.355469 7.5-7.5s-3.359375-7.5-7.5-7.5h-3c-4.140625 0-7.5 3.355469-7.5 7.5s3.359375 7.5 7.5 7.5zm0 0"/><path d="m129.5 128.75h3c4.140625 0 7.5-3.355469 7.5-7.5s-3.359375-7.5-7.5-7.5h-3c-4.140625 0-7.5 3.355469-7.5 7.5s3.359375 7.5 7.5 7.5zm0 0"/><path d="m103.5 111.25h3c4.140625 0 7.5-3.355469 7.5-7.5s-3.359375-7.5-7.5-7.5h-3c-4.140625 0-7.5 3.355469-7.5 7.5s3.359375 7.5 7.5 7.5zm0 0"/><path d="m103.5 148.25h3c4.140625 0 7.5-3.355469 7.5-7.5s-3.359375-7.5-7.5-7.5h-3c-4.140625 0-7.5 3.355469-7.5 7.5s3.359375 7.5 7.5 7.5zm0 0"/><path d="m103.5 183.25h3c4.140625 0 7.5-3.355469 7.5-7.5s-3.359375-7.5-7.5-7.5h-3c-4.140625 0-7.5 3.355469-7.5 7.5s3.359375 7.5 7.5 7.5zm0 0"/><path d="m103.5 219.25h3c4.140625 0 7.5-3.355469 7.5-7.5s-3.359375-7.5-7.5-7.5h-3c-4.140625 0-7.5 3.355469-7.5 7.5s3.359375 7.5 7.5 7.5zm0 0"/><path d="m129.5 164.75h3c4.140625 0 7.5-3.355469 7.5-7.5s-3.359375-7.5-7.5-7.5h-3c-4.140625 0-7.5 3.355469-7.5 7.5s3.359375 7.5 7.5 7.5zm0 0"/><path d="m129.5 200.75h3c4.140625 0 7.5-3.355469 7.5-7.5s-3.359375-7.5-7.5-7.5h-3c-4.140625 0-7.5 3.355469-7.5 7.5s3.359375 7.5 7.5 7.5zm0 0"/><path d="m129.5 236.75h3c4.140625 0 7.5-3.355469 7.5-7.5s-3.359375-7.5-7.5-7.5h-3c-4.140625 0-7.5 3.355469-7.5 7.5s3.359375 7.5 7.5 7.5zm0 0"/><path d="m76.5 93.25h3c4.140625 0 7.5-3.355469 7.5-7.5s-3.359375-7.5-7.5-7.5h-3c-4.140625 0-7.5 3.355469-7.5 7.5s3.359375 7.5 7.5 7.5zm0 0"/><path d="m76.5 129.25h3c4.140625 0 7.5-3.355469 7.5-7.5s-3.359375-7.5-7.5-7.5h-3c-4.140625 0-7.5 3.355469-7.5 7.5s3.359375 7.5 7.5 7.5zm0 0"/><path d="m76.5 165.25h3c4.140625 0 7.5-3.355469 7.5-7.5s-3.359375-7.5-7.5-7.5h-3c-4.140625 0-7.5 3.355469-7.5 7.5s3.359375 7.5 7.5 7.5zm0 0"/><path d="m76.5 201.25h3c4.140625 0 7.5-3.355469 7.5-7.5s-3.359375-7.5-7.5-7.5h-3c-4.140625 0-7.5 3.355469-7.5 7.5s3.359375 7.5 7.5 7.5zm0 0"/><path d="m87 229.75c0-4.144531-3.359375-7.5-7.5-7.5h-3c-4.140625 0-7.5 3.355469-7.5 7.5s3.359375 7.5 7.5 7.5h3c4.140625 0 7.5-3.355469 7.5-7.5zm0 0"/><path d="m222 369.554688v-34.554688c0-23.433594-19.066406-42.5-42.5-42.5s-42.5 19.066406-42.5 42.5v34.554688c-8.128906 2.726562-14 10.414062-14 19.445312 0 11.304688 9.195312 20.5 20.5 20.5h72c11.304688 0 20.5-9.195312 20.5-20.5 0-9.03125-5.871094-16.722656-14-19.445312zm-6.5 24.945312h-72c-3.03125 0-5.5-2.46875-5.5-5.5s2.46875-5.5 5.5-5.5c4.6875 0 8.5-3.8125 8.5-8.5v-40c0-15.164062 12.335938-27.5 27.5-27.5s27.5 12.335938 27.5 27.5v40c0 4.6875 3.8125 8.5 8.5 8.5 3.03125 0 5.5 2.46875 5.5 5.5s-2.46875 5.5-5.5 5.5zm0 0"/></svg>