<svg height="512.00075pt" viewBox="0 0 512.00075 512.00075" width="512.00075pt" xmlns="http://www.w3.org/2000/svg"><path d="m223.261719 352.371094-114.457031 114.757812-61.53125-2.402344h-.898438l-1.503906-61.53125 114.757812-114.457031c5.703125-5.699219 15.308594-5.699219 21.011719 0l21.308594 21.3125 21.308593 21.308594c5.707032 5.703125 5.707032 15.308594.003907 21.011719zm0 0" fill="#64e1dc"/><path d="m223.261719 331.359375c5.703125 5.703125 5.703125 15.308594 0 21.011719l-114.457031 114.757812-61.53125-2.402344 154.675781-154.675781zm0 0" fill="#00c8c8"/><path d="m412.351562 99.648438c-52.523437-52.824219-138.367187-52.824219-190.894531 0-52.824219 52.527343-52.824219 138.367187 0 190.894531 52.527344 52.824219 138.371094 52.824219 190.894531 0 25.515626-25.511719 39.621094-59.429688 39.621094-95.449219 0-36.015625-14.105468-69.933594-39.621094-95.445312zm0 0" fill="#faecd8"/><path d="m451.972656 195.09375c0 36.019531-14.105468 69.9375-39.621094 95.449219-52.523437 52.824219-138.367187 52.824219-190.894531 0l190.894531-190.894531c25.515626 25.511718 39.621094 59.429687 39.621094 95.445312zm0 0" fill="#f4d7af"/><path d="m108.804688 467.128906-32.117188 31.816406c-17.410156 17.40625-45.921875 17.40625-63.628906 0-17.410156-17.710937-17.410156-46.222656 0-63.632812l31.8125-32.117188zm0 0" fill="#00c8c8"/><path d="m316.90625 120.058594c-8.296875 0-15.007812-6.710938-15.007812-15.007813v-90.042969c0-8.296874 6.710937-15.007812 15.007812-15.007812 8.292969 0 15.007812 6.710938 15.007812 15.007812v90.042969c0 8.296875-6.714843 15.007813-15.007812 15.007813zm0 0" fill="#f4d7af"/><path d="m316.90625 390.191406c-8.296875 0-15.007812-6.714844-15.007812-15.007812v-90.042969c0-8.296875 6.710937-15.007813 15.007812-15.007813 8.292969 0 15.007812 6.710938 15.007812 15.007813v90.042969c0 8.292968-6.714843 15.007812-15.007812 15.007812zm0 0" fill="#dabba6"/><path d="m226.863281 210.101562h-90.046875c-8.292968 0-15.007812-6.710937-15.007812-15.007812 0-8.292969 6.714844-15.003906 15.007812-15.003906h90.046875c8.292969 0 15.003907 6.710937 15.003907 15.003906 0 8.296875-6.710938 15.007812-15.003907 15.007812zm0 0" fill="#f4d7af"/><path d="m496.992188 210.101562h-90.042969c-8.292969 0-15.007813-6.710937-15.007813-15.007812 0-8.292969 6.714844-15.003906 15.007813-15.003906h90.042969c8.296874 0 15.007812 6.710937 15.007812 15.003906 0 8.296875-6.710938 15.007812-15.007812 15.007812zm0 0" fill="#dabba6"/><path d="m390.441406 171.683594-30.011718 60.027344c-3.902344 7.503906-12.605469 10.507812-20.109376 6.90625l-44.726562-22.210938-5.703125-3.003906-22.507813 22.210937c-5.703124 6.003907-15.308593 6.003907-21.011718 0-6.003906-5.703125-6.003906-15.304687 0-21.007812l30.015625-30.015625c4.5-4.804688 11.40625-5.703125 17.105469-3.003906l24.613281 12.308593 22.210937 11.105469 23.113282-46.523438c3.902343-7.503906 12.90625-10.503906 20.105468-6.902343 7.507813 3.902343 10.507813 12.90625 6.90625 20.109375zm0 0" fill="#64e1dc"/><path d="m76.988281 435.3125 31.816407 31.816406-32.117188 31.816406c-17.40625 17.40625-45.921875 17.40625-63.628906 0zm0 0" fill="#1cadb5"/><path d="m390.441406 171.683594-30.011718 60.027344c-3.902344 7.503906-12.605469 10.507812-20.109376 6.90625l-44.726562-22.210938 22.511719-22.511719 22.214843 11.105469 23.109376-46.523438c3.902343-7.503906 12.90625-10.503906 20.109374-6.902343 7.503907 3.902343 10.503907 12.90625 6.902344 20.109375zm0 0" fill="#00c8c8"/><path d="m454.972656 57.027344c-76.234375-75.9375-199.894531-75.9375-276.132812 0-75.9375 76.238281-75.9375 199.898437 0 276.136718 76.234375 75.9375 199.894531 75.9375 276.132812 0 75.9375-76.238281 75.9375-199.898437 0-276.136718zm-42.621094 233.515625c-52.523437 52.824219-138.367187 52.824219-190.894531 0-52.824219-52.527344-52.824219-138.367188 0-190.894531 52.527344-52.824219 138.371094-52.824219 190.894531 0 25.515626 25.511718 39.621094 59.429687 39.621094 95.445312 0 36.019531-14.105468 69.9375-39.621094 95.449219zm0 0" fill="#7c8388"/><path d="m454.972656 57.027344-42.621094 42.621094c25.515626 25.511718 39.621094 59.429687 39.621094 95.445312 0 36.019531-14.105468 69.9375-39.621094 95.449219-52.523437 52.824219-138.367187 52.824219-190.894531 0l-42.617187 42.617187c76.234375 75.941406 199.894531 75.941406 276.132812 0 75.9375-76.234375 75.9375-199.894531 0-276.132812zm0 0" fill="#575f64"/></svg>