<svg height="512pt" viewBox="0 0 512.00025 512" width="512pt" xmlns="http://www.w3.org/2000/svg"><path d="m362 75v422c0 8.398438-6.597656 15-15 15h-332c-8.402344 0-15-6.601562-15-15v-422c0-8.402344 6.597656-15 15-15h332c8.402344 0 15 6.597656 15 15zm0 0" fill="#64e1dc"/><path d="m362 75v422c0 8.398438-6.597656 15-15 15h-165v-452h165c8.402344 0 15 6.597656 15 15zm0 0" fill="#00c8c8"/><path d="m422 15v420c0 8.398438-6.597656 15-15 15h-330c-8.402344 0-15-6.601562-15-15v-315l120-120h225c8.402344 0 15 6.597656 15 15zm0 0" fill="#faecd8"/><path d="m422 15v420c0 8.398438-6.597656 15-15 15h-165v-450h165c8.402344 0 15 6.597656 15 15zm0 0" fill="#f4d7af"/><path d="m182 105v-105h-15c-2.523438 0-7.960938 1.738281-10.625 4.414062l-89.960938 89.960938c-2.671874 2.664062-4.414062 8.105469-4.414062 10.625v15h105c8.285156 0 15-6.714844 15-15zm0 0" fill="#f4d7af"/><path d="m167 390c-3.941406 0-7.777344-1.554688-10.605469-4.394531l-30-30c-5.859375-5.859375-5.859375-15.351563 0-21.210938s15.351563-5.859375 21.210938 0l15.277343 15.277344 20.699219-41.382813c3.722657-7.410156 12.699219-10.386718 20.128907-6.707031 7.410156 3.707031 10.414062 12.714844 6.707031 20.125l-30 60c-2.152344 4.308594-6.253907 7.324219-11.015625 8.101563-.804688.132812-1.613282.191406-2.402344.191406zm0 0" fill="#64e1dc"/><path d="m362 75c0 8.402344-6.597656 15-15 15h-120c-8.402344 0-15-6.597656-15-15s6.597656-15 15-15h120c8.402344 0 15 6.597656 15 15zm0 0" fill="#f4d7af"/><path d="m362 135c0 8.398438-6.597656 15-15 15h-120c-8.402344 0-15-6.601562-15-15 0-8.402344 6.597656-15 15-15h120c8.402344 0 15 6.597656 15 15zm0 0" fill="#f4d7af"/><path d="m362 135c0 8.398438-6.597656 15-15 15h-105v-30h105c8.402344 0 15 6.597656 15 15zm0 0" fill="#dabba6"/><path d="m347 90h-105v-30h105c8.402344 0 15 6.597656 15 15s-6.597656 15-15 15zm0 0" fill="#dabba6"/><path d="m291.117188 332.09375-42.425782 42.425781c-5.9375 5.941407-15.273437 5.941407-21.210937 0-5.941407-5.9375-5.941407-15.273437 0-21.210937l42.425781-42.425782c5.9375-5.941406 15.273438-5.941406 21.210938 0 5.941406 5.941407 5.941406 15.273438 0 21.210938zm0 0" fill="#fed2a4"/><path d="m503.25 141.175781-42.425781 42.425781h-42.425781v-42.425781l42.425781-42.425781c11.667969-11.664062 30.757812-11.664062 42.425781 0 11.667969 11.667969 11.667969 30.761719 0 42.425781zm0 0" fill="#7c8388"/><path d="m333.332031 310.671875c-16.332031 14.636719-35.214843 26.304687-56.214843 33.304687-5.726563 1.90625-11.457032 0-15.273438-3.820312-3.816406-3.816406-5.726562-9.546875-3.816406-15.273438 6.996094-21 18.667968-39.878906 33.304687-56.214843l42.214844-.210938zm0 0" fill="#fed2a4"/><path d="m460.824219 183.601562s-118.792969 118.792969-122.1875 122.191407c-1.699219 1.695312-3.609375 3.179687-5.304688 4.878906l-42.003906-42.003906c1.699219-1.695313 3.183594-3.605469 4.882813-5.304688l122.1875-122.1875zm0 0" fill="#ff637b"/><path d="m333.542969 268.457031-.210938 42.214844c-16.332031 14.636719-35.214843 26.304687-56.214843 33.304687-5.726563 1.90625-11.457032 0-15.273438-3.820312zm0 0" fill="#ffbd86"/><path d="m503.25 141.175781-42.425781 42.425781h-42.425781l84.851562-84.851562c11.667969 11.667969 11.667969 30.761719 0 42.425781zm0 0" fill="#575f64"/><path d="m291.117188 332.09375-42.425782 42.425781c-5.9375 5.941407-15.273437 5.941407-21.210937 0l63.636719-63.636719c5.941406 5.941407 5.941406 15.273438 0 21.210938zm0 0" fill="#ffbd86"/><path d="m460.824219 183.601562s-118.792969 118.792969-122.1875 122.191407c-1.699219 1.695312-3.609375 3.179687-5.304688 4.878906l-21-21.003906 127.277344-127.277344zm0 0" fill="#e63950"/></svg>