<svg id="Capa_1" fill="#ffffff" enable-background="new 0 0 512 512" height="512" viewBox="0 0 512 512" width="512" xmlns="http://www.w3.org/2000/svg"><path d="m406 232.666c-16.807 0-32.708 3.938-46.842 10.93l-20.905-35.792v-21.755c8.73-3.095 15-11.437 15-21.215v-75c0-12.407-10.094-22.5-22.5-22.5h-60c-4.143 0-7.5 3.358-7.5 7.5s3.357 7.5 7.5 7.5h60c4.136 0 7.5 3.364 7.5 7.5v8.79c-2.347-.833-4.871-1.29-7.5-1.29h-60c-4.143 0-7.5 3.358-7.5 7.5s3.357 7.5 7.5 7.5h60c4.136 0 7.5 3.364 7.5 7.5v45c0 4.136-3.364 7.5-7.5 7.5-4.143 0-7.5 3.358-7.5 7.5v22.5h-142.5c-.026 0-.051.005-.076.005-.597.006-1.196.083-1.787.235-.075.019-.148.042-.223.063-.213.062-.424.134-.634.216-.081.031-.162.061-.242.096-.226.097-.449.208-.669.329-.043.024-.089.044-.132.069-.271.157-.507.319-.734.489-.06.045-.116.095-.175.142-.18.143-.352.292-.516.449-.059.057-.118.115-.175.173-.176.18-.341.367-.497.562-.031.038-.063.074-.093.113-.184.241-.352.491-.505.75-.009.015-.021.029-.03.044l-21.682 37.368c-14.432-7.06-30.388-10.771-46.583-10.771-58.449 0-106 47.551-106 106s47.551 106 106 106c55.927 0 101.87-43.538 105.731-98.5h44.269c2.674 0 5.146-1.423 6.487-3.736l68.287-117.689 15.443 26.44c-27.885 19.116-46.217 51.198-46.217 87.485 0 58.449 47.552 106 106 106s106-47.551 106-106-47.552-106-106-106zm-232.524 44.942c13.483 14.891 21.566 33.681 23.2 53.559h-37.712c-1.966-13.951-9.332-26.182-19.91-34.521l41.721-71.905 62.16 106.426h-31.199c-1.664-23.613-11.152-45.97-27.14-63.627-2.779-3.069-7.522-3.306-10.594-.525-3.071 2.779-3.306 7.522-.526 10.593zm-73.975 64.801c1.338 2.324 3.816 3.757 6.499 3.757h37.761c-3.5 17.65-19.098 31-37.761 31-21.229 0-38.5-17.271-38.5-38.5s17.271-38.5 38.5-38.5c4.36 0 8.549.739 12.46 2.081l-18.947 32.655c-1.346 2.32-1.351 5.183-.012 7.507zm19.522-11.243 12.402-21.375c6.22 5.483 10.662 12.934 12.336 21.375zm-13.023 98.5c-50.178 0-91-40.822-91-91s40.822-91 91-91c13.551 0 26.9 3.028 39.031 8.787l-18.94 32.642c-6.208-2.525-12.987-3.929-20.091-3.929-29.5 0-53.5 24-53.5 53.5s24 53.5 53.5 53.5c26.954 0 49.304-20.04 52.964-46h37.725c-3.827 46.682-43.037 83.5-90.689 83.5zm149.979-105.907-62.16-106.425h123.911zm150.021 105.907c-50.178 0-91-40.822-91-91 0-30.771 15.355-58.02 38.802-74.498l19.024 32.572c-12.369 9.808-20.326 24.951-20.326 41.927 0 29.5 24 53.5 53.5 53.5s53.5-24 53.5-53.5-24-53.5-53.5-53.5c-7.158 0-13.988 1.424-20.234 3.986l-19.025-32.573c11.893-5.711 25.208-8.913 39.259-8.913 50.178 0 91 40.822 91 91s-40.822 90.999-91 90.999zm6.477-94.782-19.041-32.601c3.941-1.365 8.166-2.116 12.565-2.116 21.229 0 38.5 17.271 38.5 38.5s-17.271 38.5-38.5 38.5-38.5-17.271-38.5-38.5c0-11.451 5.031-21.744 12.992-28.802l19.032 32.585c1.395 2.388 3.904 3.719 6.483 3.719 1.284 0 2.587-.331 3.775-1.025 3.576-2.091 4.782-6.684 2.694-10.26z"/><path d="m109.804 187.334h88.35c4.142 0 7.5-3.358 7.5-7.5v-15c0-12.407-10.093-22.5-22.5-22.5h-73.35c-12.407 0-22.5 10.093-22.5 22.5s10.093 22.5 22.5 22.5zm0-30h73.35c4.136 0 7.5 3.364 7.5 7.5v7.5h-80.85c-4.136 0-7.5-3.364-7.5-7.5s3.364-7.5 7.5-7.5z"/></svg>