<svg fill="#fff" height="480pt" viewBox="0 0 480 480.02386" width="480pt" xmlns="http://www.w3.org/2000/svg"><path d="m464.597656 71.105469c-.453125-12.914063-11.078125-23.132813-24-23.082031h-49.183594c-12.917968-.046876-23.542968 10.167968-24 23.082031l-6.464843 168.917969h-8.597657l-7.753906-200.925782c-.457031-12.910156-11.082031-23.125-24-23.074218h-49.191406c-10.785156-.015626-20.242188 7.195312-23.078125 17.601562-14.617187-26.996094-46.304687-39.863281-75.601563-30.695312-3.152343 1-6.214843 2.253906-9.167968 3.742187-9.46875-7.308594-22.226563-8.722656-33.070313-3.671875-10.84375 5.054688-17.960937 15.738281-18.453125 27.691406-.492187 11.949219 5.726563 23.179688 16.117188 29.109375-.097656 1.359375-.136719 2.75-.136719 4.199219-.015625 3.992188.355469 7.980469 1.101563 11.902344-5.914063 8.183594-9.101563 18.023437-9.101563 28.121094v1.007812c-14.121094 3.667969-23.984375 16.40625-24 30.992188 0 .375.078125.71875.09375 1.089843-10.015625 2.550781-18.183594 9.78125-21.925781 19.414063-1.378906 3.484375-2.113282 7.191406-2.167969 10.9375-9.191406 4.632812-17.011719 11.582031-22.6875 20.167968-9.71875 15.660157-12.253906 34.734376-6.960937 52.390626h-26.351563v1.472656c-7.984375 2.769531-13.902344 9.5625-15.546875 17.851562-1.648438 8.289063 1.226562 16.828125 7.546875 22.4375v190.238282c0 4.417968 3.582031 8 8 8h456c2.175781.003906 4.257813-.882813 5.769531-2.453126 1.507813-1.566406 2.316406-3.683593 2.230469-5.859374zm-16.582031 192.917969c-.019531-5.261719-1.789063-10.371094-5.023437-14.519532l12.34375-3.097656 1.351562 35.25-16.671875 4.136719v-4c5.070313-4.515625 7.980469-10.976563 8-17.769531zm-66.480469-143.136719 68.3125-17.039063 1.199219 31.199219-70.734375 17.679687zm-1.855468 48.488281 72-18 1.199218 31.199219-74.398437 18.640625zm80.664062 207.335938-20.328125 5.074218v-31.511718l19.128906-4.761719zm-1.824219-47.527344-18.503906 4.609375v-31.511719l17.304687-4.289062zm-18.503906 69.089844 20.960937-5.226563.894532 23.265625-21.855469 5.464844zm-48.601563-334.25h49.207032c4.304687-.003907 7.839844 3.398437 8 7.695312l.609375 15.792969-67.054688 16.726562 1.246094-32.527343c.167969-4.292969 3.695313-7.6875 7.992187-7.6875zm-13.597656 153.832031 75.6875-18.953125 1.199219 31.203125-39.664063 9.917969h-38.070312zm-228.136718-58.28125c2.78125-2.5625 5.089843-5.59375 6.824218-8.957031 18.808594 4.480468 38.480469-2.636719 50.070313-18.113282 1.761719-2.339844 3.300781-4.839844 4.601562-7.464844 13.894531-4.328124 25.875-13.316406 33.917969-25.445312l-5.414062 140.429688h-155.082032c.199219-.914063.617188-1.769532 1.21875-2.488282 1.101563-1.167968 3.09375-1.421875 8.078125-1.832031 7.21875-.382813 14.34375-1.824219 21.144531-4.269531 10.328126-3.945313 19.609376-10.207032 27.136719-18.304688 12.839844-15.503906 11.605469-36.777344 7.503907-53.554687zm184.734374 30.585937-77.550781 19.464844 1.222657-31.824219 75.128906-18.800781zm-1.839843-47.519531-73.855469 18.480469 1.230469-31.816406 71.425781-17.855469zm-1.832031-47.527344-70.152344 17.535157 1.234375-31.832032 67.71875-16.898437zm-74.527344 131.140625 78.832031-19.75 1.296875 33.519532h-80.65625zm15.191406-194.230468h49.214844c4.300781-.003907 7.835937 3.390624 8 7.6875l.304687 7.882812-66.445312 16.574219.941406-24.457031c.167969-4.289063 3.691406-7.683594 7.984375-7.6875zm-143.679688 88c2.539063.347656 5.09375-.539063 6.863282-2.390626 1.773437-1.851562 2.554687-4.4375 2.097656-6.960937-.425781-2.191406-.652344-4.417969-.671875-6.648437.003906-7.6875 2.78125-15.117188 7.816406-20.925782 1.742188-2.019531 2.367188-4.773437 1.664063-7.347656-1.015625-3.824219-1.511719-7.769531-1.480469-11.726562-.023437-2.558594.199219-5.113282.664063-7.632813.757812-3.988281-1.589844-7.910156-5.464844-9.125-6.5-2.03125-11.003906-7.957031-11.21875-14.761719-.21875-6.804687 3.894531-13.003906 10.253906-15.449218 6.355469-2.441407 13.5625-.59375 17.957031 4.609374 2.566407 3.074219 7.007813 3.777344 10.398438 1.648438 1.890625-1.203125 3.859375-2.273438 5.898437-3.199219 3.851563 4.894531 5.289063 11.269531 3.902344 17.34375-2.285156 5.113281-6.480469 9.132813-11.6875 11.199219l6.574219 14.589844c9.355469-3.832032 16.710937-11.359375 20.320312-20.796875 2.554688-8.757813 1.546875-18.167969-2.796875-26.183594 1.078125-.074219 2.117188-.242187 3.199219-.242187 24.175781.125 44.484375 18.214843 47.398437 42.214843 2.914063 24-12.476562 46.421875-35.917968 52.328125-2.566406.621094-4.660156 2.464844-5.601563 4.929688-.363281.894531-.773437 1.773437-1.230469 2.625-5.644531-2.289063-10.566406-6.050782-14.25-10.898438-5.371093-7.617187-7.675781-16.980468-6.457031-26.222656l-15.886719-1.953125c-1.703124 13.347656 1.707032 26.84375 9.542969 37.777344 4.351563 5.695312 9.894531 10.367187 16.242188 13.695312-9.203125 6.089844-20.863281 7.105469-30.976563 2.695313-2.230468-.988282-4.792968-.90625-6.957031.226562-2.164063 1.132813-3.691406 3.191406-4.148437 5.589844-.863282 4.441406-3.546876 8.320312-7.398438 10.695312-1.726562 1.09375-2.960938 2.816407-3.441406 4.800782-3.953125-8.59375-11.550782-14.964844-20.703125-17.359375 0-.398438-.199219-.726563-.199219-1.152344.003906-8.714844 6.980469-15.824219 15.695312-15.992187zm-65.015624 76.375c5.042968-7.5 12.261718-13.273438 20.6875-16.550782 3.480468-1.402344 5.519531-5.035156 4.90625-8.734375-.167969-.949219-.265626-1.90625-.289063-2.867187 3.867187.765625 7.433594 2.632812 10.261719 5.378906 4.265625 4.984375 6.332031 11.480469 5.738281 18.015625l16 .800781c.851563-10.992187-2.859375-21.851562-10.265625-30.015625-3.722656-3.761719-8.253906-6.625-13.246094-8.378906 2.351563-1.296875 4.984375-1.992187 7.671875-2.023437.269531 0 .542969.074218.800781.089843 6.367188.335938 11.90625 4.484375 14.023438 10.503907l13.75-4.800782c.019531.328125.0625.65625.121094.984375 3.28125 11.199219 7.238281 31.765625-3.023438 44.152344-5.796875 5.980469-12.835937 10.625-20.617187 13.597656-5.363281 1.875-10.972657 2.953125-16.648438 3.199219-6.757812-.285156-13.351562 2.125-18.335937 6.699219-3.410156 3.75-5.464844 8.539062-5.824219 13.597656h-9.3125c-5.714844-14.308594-4.382813-30.46875 3.601563-43.648437zm-38.695313 59.625h400c4.417969 0 8 3.582031 8 8 0 4.417968-3.582031 8-8 8h-400c-4.417969 0-8-3.582032-8-8 0-4.417969 3.582031-8 8-8zm152 208v-80h96v80zm184 0h-72v-88c0-4.417969-3.582031-8-8-8h-112c-4.417969 0-8 3.582031-8 8v88h-136v-176h400v176zm80 0v-25.75l22.480469-5.601563 1.207031 31.351563zm0 0"/><path d="m64.015625 408.023438h48v16h-48zm0 0"/><path d="m336.015625 408.023438h48v16h-48zm0 0"/><path d="m120.015625 320.023438h-64c-4.417969 0-8 3.582031-8 8v64c0 4.417968 3.582031 8 8 8h64c4.417969 0 8-3.582032 8-8v-64c0-4.417969-3.582031-8-8-8zm-8 64h-48v-48h48zm0 0"/><path d="m392.015625 320.023438h-64c-4.417969 0-8 3.582031-8 8v64c0 4.417968 3.582031 8 8 8h64c4.417969 0 8-3.582032 8-8v-64c0-4.417969-3.582031-8-8-8zm-8 64h-48v-48h48zm0 0"/><path d="m176.015625 340.023438c0-2.207032 1.789063-4 4-4h104c11.042969 0 20-8.953126 20-20 0-11.046876-8.957031-20-20-20h-140v16h140c2.207031 0 4 1.792968 4 4 0 2.210937-1.792969 4-4 4h-104c-11.046875 0-20 8.953124-20 20 0 11.046874 8.953125 20 20 20h132v-16h-132c-2.210937 0-4-1.789063-4-4zm0 0"/></svg>