<svg fill="#fff"  height="507pt" viewBox="0 -10 507.80328 507" width="507pt" xmlns="http://www.w3.org/2000/svg"><path d="m8.394531 395.609375h.578125c.746094 6.058594 2.324219 11.992187 4.683594 17.625l-.460938.257813c-3.289062 1.902343-4.894531 5.773437-3.910156 9.441406.980469 3.671875 4.308594 6.222656 8.105469 6.222656 1.476563.003906 2.925781-.386719 4.199219-1.132812l.542968-.3125c3.691407 4.859374 8.023438 9.191406 12.875 12.886718l-.308593.542969c-1.523438 2.601563-1.539063 5.816406-.039063 8.425781 1.5 2.613282 4.285156 4.21875 7.296875 4.214844 3.011719-.007812 5.789063-1.628906 7.277344-4.246094l.269531-.460937c5.632813 2.363281 11.5625 3.933593 17.625 4.675781v.585938c0 4.636718 3.757813 8.394531 8.394532 8.394531 4.636718 0 8.394531-3.757813 8.394531-8.394531v-.585938c6.0625-.742188 11.992187-2.3125 17.625-4.675781l.269531.460937c1.488281 2.617188 4.265625 4.238282 7.277344 4.246094 3.011718.003906 5.796875-1.601562 7.296875-4.214844 1.5-2.609375 1.488281-5.824218-.035157-8.425781l-.3125-.542969c4.855469-3.695312 9.183594-8.027344 12.875-12.886718l.546876.3125c1.273437.746093 2.722656 1.136718 4.195312 1.132812 3.800781 0 7.125-2.550781 8.109375-6.222656.980469-3.667969-.621094-7.539063-3.910156-9.441406l-.464844-.257813c2.363281-5.632813 3.9375-11.566406 4.683594-17.625h.613281c4.636719 0 8.394531-3.757813 8.394531-8.394531 0-4.636719-3.757812-8.394532-8.394531-8.394532h-.578125c-.050781-.34375-.109375-.679687-.160156-1.023437l24.441406-6.664063 19.886719 13.261719c2.753906 1.84375 6 2.824219 9.316406 2.820313h132.085938c4.390624.011718 8.046874-3.355469 8.394531-7.730469 4.226562-50.042969 45.964843-88.578125 96.1875-88.792969 10.15625-.015625 20.246093 1.589844 29.898437 4.75 9.429688 2.941406 19.710938.097656 26.289063-7.269531 6.578125-7.371094 8.238281-17.90625 4.246093-26.941406-2.984374-6.664063-8.671874-11.738281-15.628906-13.953125-22.457031-7.089844-46.28125-8.730469-69.496094-4.78125-.414062-.839844-.839843-1.757813-1.371093-2.710938 8.863281-7.941406 13.429687-24.738281 13.429687-41.421875 0-22.941406-8.644531-46.164062-25.179687-46.164062-12.214844.230469-24.175781 3.527343-34.78125 9.59375l-3.652344-4.894531c-10.296875-13.78125-29.363281-17.515626-44.097656-8.636719l-2.460938 1.46875c-4.71875-3.816407-10.597656-5.90625-16.667969-5.925781h-25.59375l-65.542968-57.074219c-5.484375-4.773438-12.769532-6.945313-19.972656-5.949219-7.203126.992188-13.625 5.054688-17.613282 11.132812l-59.914062 91.398438-5.410156 8.394531c-8.191407 12.414063-7.003907 28.785157 2.894531 39.882813l-23.980469-3.691406c-1.113281-.128907-2.234375-.199219-3.359375-.210938h-43.914063c-11.449218.027344-20.972656 8.816406-21.917968 20.226562-.949219 11.410157 6.996094 21.648438 18.285156 23.5625l32.003906 5.363282v3.609375c.027344 7.210937 4.621094 13.609375 11.441406 15.949219l40.808594 13.605468c3.425782 1.125 7.011719 1.691406 10.617188 1.675782h14.679687l19.925781 44.839843-18.640624 5.035157c-.058594-.132813-.101563-.285157-.160157-.417969l.460938-.269531c2.695312-1.449219 4.386719-4.25 4.417969-7.308594.027343-3.058594-1.609376-5.890625-4.273438-7.394532-2.664062-1.503906-5.9375-1.433593-8.539062.175782l-.542969.308594c-3.691407-4.851563-8.023438-9.183594-12.875-12.875l.308593-.546876c2.28125-4.011718.898438-9.109374-3.097656-11.417968-3.996094-2.304688-9.105468-.953125-11.4375 3.027344l-.269531.453124c-5.636719-2.355468-11.566406-3.929687-17.625-4.675781v-.582031c0-4.632812-3.761719-8.390625-8.394531-8.390625-4.636719 0-8.394532 3.757813-8.394532 8.390625v.582031c-6.0625.746094-11.992187 2.320313-17.625 4.675781l-.269531-.453124c-1.488281-2.621094-4.265625-4.238282-7.277343-4.246094-3.011719-.007813-5.796876 1.601562-7.296876 4.210937-1.5 2.613281-1.488281 5.828125.035157 8.425781l.3125.546876c-4.855469 3.691406-9.183594 8.023437-12.875 12.875l-.546875-.308594c-2.601563-1.609375-5.871094-1.679688-8.535156-.175782-2.667969 1.503907-4.304688 4.335938-4.273438 7.394532s1.722656 5.859375 4.414062 7.308594l.464844.269531c-2.363281 5.632812-3.9375 11.5625-4.683594 17.625h-.613281c-4.636719 0-8.394531 3.757812-8.394531 8.394531 0 4.632812 3.757812 8.390625 8.394531 8.390625zm463.558594-132.339844c2.410156.753907 4.382813 2.5 5.425781 4.800781.972656 2.160157.972656 4.636719 0 6.796876-1.675781 3.847656-5.964844 5.828124-9.980468 4.617187-31.695313-10.339844-66.335938-6.195313-94.699219 11.324219-28.363281 17.523437-47.570313 46.648437-52.507813 79.617187h-16.945312c5.039062-38.246093 26.761718-72.296875 59.328125-92.980469 32.5625-20.683593 72.617187-25.875 109.378906-14.175781zm-190.226563 7.234375-55.105468 20.65625v-49.027344c6.851562-2.617187 13.742187-5.21875 20.640625-7.671874 19.5-7.023438 36.242187-12.464844 50.21875-16.332032l21.46875 21.476563v8.554687zm91.078126-96.425781c-2.367188 7.875-3.542969 16.0625-3.492188 24.285156 0 1.273438.199219 2.457031.25 3.714844-8.003906-4.0625-16.699219-6.59375-25.632812-7.460937 8.394531-8.429688 18.15625-15.375 28.875-20.539063zm21.542968-5.078125c2.402344.882812 8.539063 11.0625 8.539063 29.378906.445312 9.359375-1.667969 18.664063-6.121094 26.910156-2.566406-3.359374-5.371094-6.527343-8.394531-9.484374-1.535156-5.6875-2.300782-11.554688-2.273438-17.441407 0-18.289062 6.121094-28.472656 8.160156-29.378906zm-51.742187-2.046875 3.011719 4.027344c-9.421876 7.285156-18.007813 15.585937-25.609376 24.753906-6.554687 1.089844-14.167968 2.777344-22.886718 5.101563-.152344.058593-.304688.070312-.453125.128906-15.226563 4.078125-33.582031 9.980468-55.0625 17.699218-5.875 2.082032-11.75 4.324219-17.625 6.539063-3.84375-9.484375-11.800781-16.699219-21.613281-19.597656l-18.84375-5.507813 26.230468-40.042968 26.4375 23.5c7.675782 6.835937 17.597656 10.605468 27.875 10.601562h29.703125c3.359375-.007812 6.6875-.6875 9.78125-1.996094 2.972657-1.210937 5.664063-3.03125 7.894531-5.339844 5.359376-5.222656 8.074219-12.582031 7.394532-20.035156-.113282-.9375-.285156-1.871094-.519532-2.785156l2.242188-1.335938c7.355469-4.457031 16.890625-2.605468 22.042969 4.28125zm-229.753907 33.882813 65.25-99.722657c1.320313-2.035156 3.464844-3.394531 5.875-3.714843.390626-.050782.785157-.078126 1.183594-.078126 2.011719 0 3.953125.734376 5.464844 2.066407l65.527344 57.074219c3.054687 2.667968 6.972656 4.136718 11.027344 4.136718h25.632812c4.59375-.191406 8.605469 3.074219 9.351562 7.605469.234376 2.566406-.738281 5.09375-2.628906 6.839844-.675781.710937-1.496094 1.265625-2.40625 1.628906-1.0625.453125-2.203125.691406-3.359375.699219h-29.703125c-6.167968-.003906-12.121094-2.265625-16.726562-6.363282l-41.40625-36.753906c-2.226563-2.078125-5.402344-2.785156-8.300782-1.851562-2.894531.933594-5.058593 3.363281-5.65625 6.351562-.59375 2.984375.476563 6.058594 2.792969 8.03125l2.292969 2.039063-33.785156 51.558593c-1.453125 2.222657-1.773438 5.003907-.855469 7.496094.917969 2.492188 2.957031 4.402344 5.503906 5.15625l29.808594 8.667969c7.167969 2.117187 12.089844 8.691406 12.101563 16.167969v68.421875c.238281 6.761719-4.585938 12.644531-11.265626 13.730469-3.558593.398437-7.113281-.757813-9.761718-3.171876-2.652344-2.382812-4.175782-5.773437-4.195313-9.339843v-50.78125c-.015625-3.671875-1.230469-7.234375-3.464843-10.148438-.640626-.929687-1.460938-1.71875-2.410157-2.324219-1.777343-1.664062-3.902343-2.90625-6.21875-3.644531l-50.277343-14.554687c-5.082032-1.480469-9.167969-5.269532-11.023438-10.226563-1.859375-4.957031-1.269531-10.496093 1.589844-14.953125zm3.449219 93.21875-40.761719-13.605469v-3.609375c.015626-8.234375-5.945312-15.261719-14.074218-16.59375l-31.96875-5.289063c-2.652344-.5-4.496094-2.925781-4.269532-5.617187.230469-2.6875 2.457032-4.769532 5.15625-4.8125h43.898438c.554688 0 1.109375.066406 1.242188.066406l92.328124 14.269531v36.089844h-46.230468c-1.8125-.011719-3.609375-.3125-5.320313-.898437zm52.039063 17.625c1.957031 14.492187 14.371094 25.273437 28.988281 25.183593.984375 0 1.964844-.050781 2.957031-.144531 14.089844-1.867188 24.960938-13.332031 26.070313-27.503906l48.351562-18.128906-2.515625 15.367187c-3.667968-2.054687-7.792968-3.144531-11.996094-3.171875-13.726562-.058594-24.972656 10.890625-25.28125 24.613281-.308593 13.726563 10.4375 25.167969 24.152344 25.726563 13.71875.554687 25.355469-9.980469 26.160156-23.683594v-.101562l7.753907-46.53125 34.574219-20.75c5.054687-3.039063 8.160156-8.496094 8.183593-14.394532v-8.554687c.011719-4.453125-1.757812-8.726563-4.917969-11.867188l-14.269531-14.269531c3.265625-.660156 6.371094-1.25 9.132813-1.675781 3.332031-.507813 6.699218-.789063 10.070312-.839844 14.585938-.148437 28.675782 5.296875 39.375 15.214844 4.683594 4.292969 8.796875 9.167969 12.238282 14.503906 1.332031 2.066406 2.414062 3.972656 3.355468 5.75-56.433594 16.753906-97.449218 65.535156-104.261718 124.003906h-90.894532l-20.984375-14.023437-19.875-44.730469zm100.277344 16.789062c0 4.636719-3.757813 8.394531-8.394532 8.394531-4.636718 0-8.394531-3.757812-8.394531-8.394531s3.757813-8.394531 8.394531-8.394531c4.621094.015625 8.363282 3.761719 8.367188 8.386719zm-193.050782 8.394531c19.601563.023438 37.410156 11.417969 45.644532 29.207031l-16.644532 4.542969c-8.4375-14.449219-26.277344-20.398437-41.699218-13.914062-15.421876 6.484375-23.648438 23.394531-19.226563 39.53125s20.117187 26.492187 36.691406 24.210937 28.886719-16.496094 28.78125-33.226562c0-.152344-.039062-.292969-.039062-.445313l16.574219-4.53125c.160156 1.675781.253906 3.289063.253906 4.96875 0 27.8125-22.546875 50.359375-50.363282 50.359375-27.8125 0-50.359374-22.546875-50.359374-50.359375 0-27.816406 22.546874-50.363281 50.359374-50.363281zm-8.101562 52.566407c1.226562 4.46875 5.839844 7.097656 10.308594 5.875l13.949218-3.808594c-1.964844 7.304687-8.589844 12.378906-16.15625 12.378906s-14.1875-5.078125-16.152344-12.386719c-1.960937-7.304687 1.222657-15.019531 7.765626-18.8125 6.546874-3.796875 14.824218-2.722656 20.1875 2.609375l-14.007813 3.820313c-2.15625.582031-3.992187 1.992187-5.101563 3.929687-1.109374 1.933594-1.402343 4.234375-.816406 6.386719zm0 0"/><path d="m432.261719 353.640625c-18.542969 0-33.574219 15.03125-33.574219 33.574219 0 18.542968 15.03125 33.574218 33.574219 33.574218s33.574219-15.03125 33.574219-33.574218c0-18.542969-15.03125-33.574219-33.574219-33.574219zm0 50.359375c-9.269531 0-16.785157-7.515625-16.785157-16.785156 0-9.273438 7.515626-16.789063 16.785157-16.789063 9.273437 0 16.789062 7.515625 16.789062 16.789063 0 9.269531-7.515625 16.785156-16.789062 16.785156zm0 0"/><path d="m499.410156 378.820312h-.578125c-.75-6.0625-2.324219-11.992187-4.683593-17.625l.460937-.269531c2.691406-1.449219 4.386719-4.25 4.414063-7.308593.03125-3.058594-1.605469-5.890626-4.269532-7.394532-2.664062-1.503906-5.9375-1.433594-8.539062.175782l-.546875.308593c-3.6875-4.851562-8.019531-9.183593-12.875-12.875l.3125-.546875c2.28125-4.011718.894531-9.109375-3.101563-11.417968-3.996094-2.304688-9.101562-.953126-11.4375 3.027343l-.269531.453125c-5.632813-2.355468-11.5625-3.929687-17.625-4.675781v-.582031c0-4.632813-3.757813-8.390625-8.394531-8.390625-4.632813 0-8.390625 3.757812-8.390625 8.390625v.582031c-6.0625.746094-11.992188 2.320313-17.628907 4.675781l-.265624-.453125c-1.488282-2.621093-4.265626-4.238281-7.28125-4.246093-3.011719-.007813-5.792969 1.601562-7.296876 4.210937-1.5 2.613281-1.484374 5.828125.039063 8.425781l.3125.546875c-4.855469 3.691407-9.1875 8.023438-12.878906 12.875l-.542969-.308593c-2.601562-1.609376-5.875-1.679688-8.539062-.175782-2.664063 1.503906-4.300782 4.335938-4.269532 7.394532.027344 3.058593 1.71875 5.859374 4.414063 7.308593l.460937.269531c-2.359375 5.632813-3.933594 11.5625-4.683594 17.625h-.613281c-4.632812 0-8.390625 3.757813-8.390625 8.394532 0 4.636718 3.757813 8.394531 8.390625 8.394531h.582031c.746094 6.058594 2.320313 11.992187 4.683594 17.625l-.464844.257813c-3.289062 1.902343-4.890624 5.773437-3.910156 9.441406.984375 3.671875 4.308594 6.222656 8.109375 6.222656 1.472657.003906 2.921875-.386719 4.195313-1.132812l.546875-.3125c3.691406 4.859374 8.019531 9.191406 12.875 12.886718l-.3125.542969c-1.519531 2.601563-1.535157 5.816406-.035157 8.425781 1.5 2.613282 4.285157 4.21875 7.296876 4.214844 3.011718-.007812 5.789062-1.628906 7.277343-4.246094l.269531-.460937c5.632813 2.363281 11.5625 3.933593 17.625 4.675781v.585938c0 4.636718 3.757813 8.394531 8.394532 8.394531 4.636718 0 8.394531-3.757813 8.394531-8.394531v-.585938c6.0625-.742188 11.992187-2.3125 17.625-4.675781l.269531.460937c1.488282 2.617188 4.265625 4.238282 7.277344 4.246094 3.011719.003906 5.796875-1.601562 7.296875-4.214844 1.5-2.609375 1.484375-5.824218-.039063-8.425781l-.308593-.542969c4.851562-3.695312 9.183593-8.027344 12.875-12.886718l.546875.3125c1.269531.746093 2.71875 1.136718 4.195312 1.132812 3.796875 0 7.125-2.550781 8.105469-6.222656.984375-3.667969-.621094-7.539063-3.910156-9.441406l-.460938-.257813c2.359375-5.632813 3.9375-11.566406 4.683594-17.625h.613281c4.636719 0 8.394532-3.757813 8.394532-8.394531 0-4.636719-3.757813-8.394532-8.394532-8.394532zm-67.148437 58.753907c-27.8125 0-50.359375-22.546875-50.359375-50.359375s22.546875-50.363282 50.359375-50.363282 50.359375 22.550782 50.359375 50.363282c-.03125 27.800781-22.558594 50.328125-50.359375 50.359375zm0 0"/><path d="m281.699219 20.363281c-9.789063-12.664062-24.917969-20.042969-40.925781-19.960937-21.546876 1.265625-36.8125 19.515625-42.496094 27.386718-1.792969 2.601563-2.816406 5.65625-2.953125 8.8125l-.839844 17.90625c-.191406 4.425782 1.367187 8.75 4.339844 12.035157l13.144531 14.371093 25.011719 27.410157c3.191406 3.496093 7.707031 5.492187 12.4375 5.492187 3.421875.003906 6.761719-1.0625 9.542969-3.046875 12.71875-8.839843 34.457031-27.273437 37.160156-51.371093 0-.300782 0-.59375.050781-.898438v-.257812c.871094-14.125-4.402344-27.9375-14.472656-37.878907zm-11.269531 57.074219-13.675782-20.027344c-.625-.925781-.550781-2.15625.179688-3 .730468-.847656 1.9375-1.101562 2.945312-.617187l18.398438 8.898437c-1.6875 5.363282-4.347656 10.371094-7.847656 14.769532zm-21.050782 19.53125-24.996094-27.371094-.453124-.496094-12.648438-13.824218.695312-17.785156c3.265626-4.546876 15.050782-19.464844 29.78125-20.328126h1.324219c10.40625.9375 19.929688 6.222657 26.230469 14.554688 3.238281 3.457031 5.878906 7.425781 7.8125 11.75l-9.9375-4.808594c-7.855469-3.828125-17.304688-1.886718-23.015625 4.726563s-6.253906 16.242187-1.324219 23.457031l15.671875 22.992188c-2.925781 2.539062-5.976562 4.925781-9.140625 7.15625zm0 0"/><path d="m58.753906 478.761719c0 4.636719 3.757813 8.394531 8.394532 8.394531h327.34375c4.636718 0 8.394531-3.757812 8.394531-8.394531s-3.757813-8.394531-8.394531-8.394531h-327.34375c-4.636719 0-8.394532 3.757812-8.394532 8.394531zm0 0"/><path d="m8.394531 487.15625h25.179688c4.636719 0 8.394531-3.757812 8.394531-8.394531s-3.757812-8.394531-8.394531-8.394531h-25.179688c-4.636719 0-8.394531 3.757812-8.394531 8.394531s3.757812 8.394531 8.394531 8.394531zm0 0"/></svg>