<?xml version="1.0" encoding="iso-8859-1"?>
<!-- Generator: Adobe Illustrator 19.0.0, SVG Export Plug-In . SVG Version: 6.00 Build 0)  -->
<svg fill="#fff"  version="1.1" id="Capa_1" xmlns="http://www.w3.org/2000/svg" xmlns:xlink="http://www.w3.org/1999/xlink" x="0px" y="0px"
	 viewBox="0 0 512.001 512.001" style="enable-background:new 0 0 512.001 512.001;" xml:space="preserve">
<g>
	<g>
		<path d="M463.879,209.731c-5.262-1.753-10.947,1.087-12.701,6.346c-15.072,45.176-46.417,82.563-88.261,105.278l-158.402,85.997
			l-32.577-21.651C196.384,298.158,241.962,217,304.088,150.539c0.745-0.73,1.452-1.487,2.114-2.263
			c4.879-5.166,9.966-10.338,15.168-15.433c5.921,1.675,12.015,2.524,18.216,2.524c1.531,0,3.071-0.052,4.614-0.155
			c37.243-2.484,65.522-34.798,63.039-72.035c-2.483-37.238-34.801-65.482-72.032-63.029c-18.04,1.198-34.531,9.35-46.436,22.956
			c-11.905,13.604-17.799,31.03-16.596,49.08c0.175,2.587,0.506,5.143,0.961,7.656c-5.234,5.075-10.44,10.3-15.547,15.605
			l-79.717,36.935c-5.031,2.331-7.218,8.299-4.888,13.329c2.331,5.032,8.299,7.22,13.33,4.888l81.409-37.724l4.673-2.161
			c6.111-2.832,13.342-1.469,18,3.402c1.18,1.231,2.149,2.656,2.886,4.253c2.504,5.399,1.705,11.84-2.032,16.495
			c-0.536,0.568-1.062,1.132-1.566,1.678c-1.185,1.097-2.542,2.009-4.055,2.708l-168.958,78.288
			c-2.069,0.966-4.278,1.456-6.565,1.456c-6.111,0-11.723-3.579-14.293-9.111c-3.646-7.869-0.211-17.242,7.652-20.894l34.01-15.76
			c5.031-2.331,7.218-8.299,4.888-13.329c-2.331-5.032-8.299-7.219-13.33-4.888l-34.017,15.763
			c-17.904,8.313-25.72,29.644-17.415,47.561c5.854,12.597,18.614,20.736,32.505,20.736c5.245,0,10.311-1.124,15.034-3.329
			l40.892-18.947c-2.013,3.461-3.997,6.933-5.937,10.417c-34.711,62.352-58.567,129.601-70.909,199.877
			c-2.439,13.894,3.526,27.352,14.228,35.152L46.51,493.136c-4.873,2.646-6.679,8.741-4.034,13.614
			c1.819,3.351,5.27,5.251,8.832,5.251c1.618,0,3.26-0.393,4.782-1.219l81.346-44.165c2.786-1.091,5.414-2.519,7.84-4.259
			l0.588-0.319L372.495,339c46.332-25.151,81.04-66.549,97.729-116.569C471.978,217.172,469.138,211.486,463.879,209.731z
			 M293.863,80.539c-0.003-0.012-0.008-0.023-0.011-0.035c-0.002-0.009-0.006-0.017-0.008-0.026s-0.005-0.018-0.007-0.026
			c-0.857-3.065-1.404-6.301-1.629-9.61c-0.844-12.69,3.301-24.947,11.674-34.514c8.373-9.568,19.97-15.301,32.658-16.144
			c1.074-0.071,2.138-0.106,3.2-0.106c24.816,0,45.791,19.322,47.467,44.438c1.746,26.19-18.145,48.919-44.34,50.666
			c-7.056,0.47-13.935-0.584-20.466-3.143c-6.543-2.548-12.564-6.621-17.411-11.776C299.746,94.685,295.902,87.866,293.863,80.539z
			 M135.225,444.969c-0.004,0.002-0.007,0.005-0.011,0.007c-0.083,0.045-0.167,0.091-0.248,0.14l-5.844,3.172
			c-2.391,0.749-4.9,0.915-7.389,0.485c-8.54-1.499-14.269-9.669-12.77-18.212c11.953-68.063,35.059-133.194,68.676-193.58
			c6.694-12.019,13.873-23.922,21.338-35.451L257,174.644c-49.383,62.792-85.827,135.502-106.358,212.832
			c-1.104,4.158,0.564,8.556,4.146,10.938l29.755,19.775L135.225,444.969z"/>
	</g>
</g>
<g>
	<g>
		<path d="M159.12,142.22c-12.919,0-12.941,20.078,0,20.078C172.04,162.298,172.062,142.22,159.12,142.22z"/>
	</g>
</g>
<g>
</g>
<g>
</g>
<g>
</g>
<g>
</g>
<g>
</g>
<g>
</g>
<g>
</g>
<g>
</g>
<g>
</g>
<g>
</g>
<g>
</g>
<g>
</g>
<g>
</g>
<g>
</g>
<g>
</g>
</svg>
